<?xml version="1.0" standalone="no"?>
<!DOCTYPE svg PUBLIC "-//W3C//DTD SVG 20010904//EN"
 "http://www.w3.org/TR/2001/REC-SVG-20010904/DTD/svg10.dtd">
<svg version="1.0" xmlns="http://www.w3.org/2000/svg"
 width="2000.000000pt" height="2000.000000pt" viewBox="0 0 2000.000000 2000.000000"
 preserveAspectRatio="xMidYMid meet">
<metadata>
Created by potrace 1.11, written by Peter Selinger 2001-2013
</metadata>
<g transform="translate(0.000000,2000.000000) scale(0.100000,-0.100000)"
fill="#000000" stroke="none">
<path d="M5686 18104 c-10 -10 -16 -11 -16 -3 0 8 -5 8 -17 -2 -9 -8 -14 -9
-10 -3 4 7 -10 11 -43 10 -28 0 -50 -4 -50 -10 0 -5 -3 -6 -7 -3 -3 4 -13 1
-21 -5 -18 -16 -62 -18 -62 -4 0 6 -5 4 -10 -4 -6 -10 -10 -11 -10 -2 0 6 -5
12 -11 12 -5 0 -8 -4 -5 -8 3 -5 -1 -9 -9 -9 -8 0 -12 4 -10 7 3 4 -8 7 -24 6
-16 0 -27 -4 -25 -8 6 -9 -6 -11 -54 -9 -19 0 -30 -3 -27 -9 3 -6 1 -10 -4
-10 -6 0 -11 4 -11 8 0 4 -12 7 -27 6 -41 -2 -43 -3 -43 -16 0 -9 3 -9 12 0 7
7 16 12 22 12 5 0 1 -6 -9 -14 -14 -10 -25 -11 -37 -5 -13 7 -18 6 -18 -3 0
-10 -2 -10 -9 1 -7 11 -9 11 -14 0 -4 -10 -6 -10 -6 -1 -1 6 -6 12 -12 12 -5
0 -8 -4 -4 -9 3 -5 1 -13 -5 -16 -6 -4 -9 -1 -8 5 4 18 -30 21 -46 5 -8 -8
-23 -12 -34 -10 -16 3 -20 0 -16 -13 5 -14 2 -13 -10 2 -16 19 -16 19 -16 -3
0 -20 -2 -21 -15 -7 -19 18 -42 11 -50 -15 -4 -11 -11 -16 -17 -13 -7 4 -6 9
3 14 7 5 -5 8 -28 7 -23 -1 -40 -6 -40 -11 1 -5 -4 -11 -12 -14 -8 -2 -11 0
-8 5 3 5 -1 10 -9 10 -8 0 -13 -6 -10 -13 5 -12 -18 -13 -30 -1 -4 4 -12 2
-19 -3 -6 -5 -22 -12 -36 -14 -13 -3 -26 -5 -29 -6 -3 -2 -8 -2 -12 -1 -5 0
-8 -4 -8 -11 0 -6 -3 -8 -7 -5 -3 4 -17 0 -31 -9 -13 -9 -22 -12 -18 -6 3 5
-1 13 -10 16 -8 3 -12 2 -9 -4 3 -5 1 -18 -5 -27 -11 -16 -11 -16 -6 -1 3 10
1 20 -4 23 -6 4 -10 -1 -10 -9 0 -20 -17 -29 -26 -15 -5 8 -3 9 6 4 9 -5 11
-4 6 4 -4 6 -12 9 -17 5 -5 -3 -6 -10 -3 -16 5 -7 0 -9 -14 -6 -12 4 -22 2
-22 -3 0 -5 -5 -9 -11 -9 -5 0 -7 5 -3 12 5 7 3 8 -5 4 -7 -5 -10 -15 -6 -23
4 -13 3 -14 -10 -3 -9 7 -18 10 -22 6 -3 -3 -1 -6 5 -6 21 0 13 -16 -8 -17
-12 -1 -18 3 -14 8 3 6 -3 5 -15 -3 -12 -7 -21 -17 -21 -23 0 -5 -5 -3 -10 5
-8 13 -11 13 -22 1 -9 -10 -10 -12 -1 -7 9 5 11 2 7 -9 -6 -14 -8 -14 -21 2
-8 10 -13 14 -10 8 2 -5 -4 -18 -15 -27 -20 -20 -26 -10 -6 10 9 9 9 12 0 12
-7 0 -23 -11 -36 -25 -21 -23 -23 -23 -41 -7 -10 9 -15 12 -11 6 3 -7 -1 -15
-10 -18 -8 -3 -12 -11 -8 -17 4 -8 3 -9 -5 -5 -6 4 -9 11 -7 15 3 4 -1 8 -9 8
-8 0 -11 -5 -8 -10 9 -15 -20 -27 -36 -14 -12 9 -13 9 -7 0 4 -8 1 -13 -9 -13
-9 0 -13 -4 -10 -10 3 -5 2 -10 -4 -10 -5 0 -11 6 -14 13 -3 7 -9 2 -15 -13
-6 -14 -11 -20 -11 -14 -1 8 -11 8 -36 0 -22 -7 -33 -16 -30 -24 3 -8 0 -10
-7 -6 -8 5 -9 2 -4 -11 5 -15 4 -16 -9 -5 -8 7 -15 9 -15 4 0 -5 -5 -2 -10 6
-8 13 -10 13 -10 -1 0 -12 -8 -15 -26 -13 -14 1 -23 0 -21 -3 3 -2 -2 -13 -11
-23 -13 -16 -19 -17 -31 -7 -8 7 -12 8 -10 2 3 -5 -3 -18 -14 -28 -19 -19 -19
-18 -13 5 6 20 5 20 -4 5 -6 -9 -15 -15 -19 -12 -5 2 -14 -2 -21 -10 -7 -8
-17 -12 -23 -8 -6 4 -7 1 -2 -7 6 -10 4 -12 -8 -7 -11 4 -17 1 -17 -9 0 -8 -5
-12 -10 -9 -6 4 -7 11 -4 17 4 7 2 8 -5 4 -6 -4 -9 -12 -6 -17 4 -5 1 -9 -5
-9 -6 0 -8 -4 -5 -10 4 -6 -1 -7 -11 -3 -12 4 -15 3 -10 -5 5 -8 2 -10 -9 -6
-17 7 -58 -24 -49 -37 3 -5 -6 -5 -20 1 -17 6 -27 6 -32 -2 -4 -7 -3 -8 4 -4
7 4 12 2 12 -5 0 -6 -8 -9 -20 -6 -17 4 -20 2 -15 -13 3 -10 1 -21 -4 -25 -7
-3 -8 0 -5 9 4 11 0 16 -11 16 -10 0 -13 -5 -9 -12 5 -8 2 -9 -11 -4 -16 6
-16 4 -4 -10 13 -16 12 -16 -11 -4 -14 7 -22 9 -18 5 12 -13 -12 -35 -29 -28
-11 4 -14 2 -9 -5 6 -11 -12 -17 -37 -13 -5 1 -6 -3 -3 -8 3 -5 -2 -15 -11
-22 -14 -12 -16 -12 -8 1 5 8 -5 0 -22 -17 -27 -29 -49 -39 -76 -34 -5 1 -6
-3 -2 -9 3 -6 11 -7 17 -4 7 4 8 2 4 -5 -4 -6 -12 -9 -17 -6 -5 4 -9 0 -9 -7
0 -10 -3 -9 -11 2 -8 12 -12 12 -16 2 -4 -10 -8 -10 -19 -1 -12 10 -13 9 -8
-5 5 -12 2 -16 -7 -14 -8 2 -21 -3 -29 -10 -8 -7 -24 -20 -35 -28 -20 -15 -19
-15 2 -5 34 17 41 13 10 -7 -15 -10 -24 -23 -20 -27 5 -5 1 -4 -8 3 -13 10
-19 9 -29 -3 -7 -8 -19 -15 -26 -15 -8 0 -11 -6 -8 -15 4 -11 2 -13 -9 -10 -9
4 -25 -6 -42 -27 -15 -18 -24 -28 -21 -21 4 6 1 15 -5 19 -8 4 -9 3 -5 -4 4
-8 0 -12 -10 -12 -16 0 -16 -1 1 -14 18 -13 17 -14 -7 -11 -16 2 -29 -3 -32
-11 -3 -8 -15 -14 -26 -14 -11 0 -20 -4 -20 -10 0 -5 8 -7 18 -4 16 5 16 5 -1
-6 -9 -6 -22 -8 -29 -4 -6 4 -8 3 -4 -4 3 -5 0 -12 -6 -15 -10 -3 -10 -8 2
-23 14 -18 14 -18 -6 -1 -23 19 -36 14 -27 -11 5 -11 3 -13 -7 -7 -10 6 -12 4
-7 -9 5 -14 3 -15 -13 -6 -16 8 -18 7 -15 -8 2 -11 -3 -19 -10 -19 -8 0 -12 4
-9 9 3 4 -2 5 -11 2 -14 -6 -14 -9 2 -28 16 -19 16 -19 1 -7 -15 11 -18 11
-18 0 0 -11 -3 -11 -11 1 -8 12 -10 9 -6 -13 2 -15 0 -30 -6 -34 -5 -3 -7 -2
-4 3 14 24 -10 27 -33 5 l-25 -24 25 12 c24 11 24 11 6 -3 -12 -9 -28 -13 -39
-10 -12 4 -17 2 -13 -4 3 -6 2 -13 -4 -17 -5 -3 -10 -1 -10 5 0 6 -4 9 -10 5
-5 -3 -7 -12 -4 -19 7 -18 -12 -30 -22 -15 -5 8 -3 9 6 4 9 -5 11 -4 6 4 -4 6
-12 9 -17 5 -5 -3 -7 -10 -4 -15 4 -5 -1 -9 -10 -9 -9 0 -13 -4 -10 -10 3 -5
2 -10 -3 -10 -6 0 -13 -7 -16 -16 -5 -12 -3 -14 7 -8 7 5 4 1 -8 -9 -64 -55
-75 -69 -70 -80 4 -6 0 -4 -8 5 -16 20 -29 14 -20 -10 4 -8 2 -13 -3 -10 -5 4
-18 -1 -29 -9 -20 -16 -20 -16 0 -9 15 5 17 4 9 -4 -6 -6 -20 -12 -32 -13 -16
-1 -19 -5 -11 -19 10 -19 6 -22 -23 -19 -16 2 -23 -15 -19 -41 2 -13 -17 -9
-22 5 -5 11 -11 -17 -8 -35 0 -4 -5 -5 -12 -2 -7 2 -27 -9 -45 -26 -26 -23
-32 -35 -27 -53 3 -12 3 -17 -2 -12 -12 15 -36 18 -27 4 5 -8 2 -10 -8 -6 -11
4 -15 0 -13 -11 4 -26 -5 -34 -21 -21 -9 7 -14 8 -13 3 1 -5 1 -19 0 -32 -1
-18 -6 -22 -24 -18 -15 3 -24 -1 -24 -10 0 -7 4 -11 8 -8 4 2 11 -1 15 -7 4
-8 3 -9 -4 -5 -15 9 -65 -40 -57 -55 4 -6 0 -9 -11 -7 -14 2 -19 -3 -18 -18 1
-16 -4 -20 -21 -18 -18 2 -22 -2 -18 -20 3 -12 1 -17 -4 -10 -5 7 -14 4 -27
-10 -19 -19 -19 -19 0 -13 18 7 18 6 2 -7 -10 -7 -18 -19 -18 -25 0 -13 -24
-41 -35 -41 -3 0 -3 5 1 12 4 7 3 8 -5 4 -9 -6 -9 -11 0 -22 10 -12 9 -13 -6
-7 -15 5 -17 3 -12 -13 7 -18 6 -18 -9 1 -16 19 -16 19 -9 -5 7 -22 6 -23 -8
-12 -13 11 -15 10 -10 -6 3 -12 -1 -22 -11 -25 -22 -9 -20 -28 2 -21 13 5 14
4 3 -4 -8 -6 -21 -8 -30 -4 -9 3 -13 2 -9 -3 4 -4 0 -14 -10 -22 -15 -13 -15
-13 8 -8 19 5 22 4 10 -4 -8 -6 -22 -11 -31 -11 -16 0 -22 -26 -10 -45 3 -6
-2 -2 -13 10 l-19 20 8 -24 c5 -18 4 -22 -6 -16 -9 6 -11 4 -6 -8 4 -11 2 -14
-9 -10 -10 4 -12 0 -7 -13 5 -12 3 -15 -6 -9 -10 6 -11 2 -6 -16 3 -13 3 -19
-2 -14 -10 12 -33 18 -32 7 4 -21 -2 -32 -13 -27 -7 4 -4 -1 7 -11 18 -15 18
-16 1 -10 -14 5 -17 3 -12 -10 6 -15 4 -15 -11 -3 -11 9 -14 10 -9 2 5 -9 1
-13 -11 -14 -16 0 -16 -1 1 -8 14 -5 16 -10 8 -15 -7 -4 -12 -4 -12 0 0 3 -6
1 -14 -6 -8 -6 -12 -19 -9 -27 5 -12 3 -14 -8 -8 -11 7 -11 5 1 -10 12 -15 12
-17 1 -10 -11 6 -13 4 -7 -10 5 -14 4 -16 -7 -7 -16 14 -28 6 -20 -14 3 -8 -3
-17 -13 -20 -19 -7 -63 -53 -64 -66 0 -5 5 -8 11 -8 5 0 7 5 3 12 -4 7 -3 8 5
4 6 -4 11 -4 10 1 -3 14 13 43 24 43 5 0 3 -8 -6 -17 -8 -10 -15 -22 -14 -27
1 -5 -7 -14 -18 -20 -34 -19 -54 -50 -43 -63 8 -10 5 -13 -13 -13 -22 0 -22 0
-3 -16 10 -8 14 -13 7 -10 -6 3 -18 3 -27 0 -14 -5 -14 -9 -4 -22 11 -13 10
-15 -8 -10 -13 3 -21 0 -21 -8 0 -7 4 -11 8 -9 10 7 5 -22 -6 -32 -4 -4 -5 -2
-1 5 5 7 1 12 -10 12 -10 0 -14 -3 -11 -7 4 -3 0 -14 -9 -24 -10 -11 -12 -19
-4 -24 6 -3 9 -1 8 6 -2 6 4 14 12 16 12 4 12 3 2 -5 -8 -5 -14 -13 -14 -18 1
-5 -7 -7 -16 -6 -14 3 -14 1 -3 -12 12 -14 12 -16 -2 -10 -12 4 -20 -2 -29
-23 -6 -15 -19 -37 -27 -48 -15 -18 -15 -19 2 -6 12 10 17 10 17 1 0 -6 -9
-14 -21 -17 -16 -4 -17 -8 -7 -14 10 -7 9 -9 -4 -9 -12 0 -15 -5 -11 -17 4
-10 2 -14 -5 -9 -7 4 -10 -1 -7 -15 4 -17 2 -19 -11 -8 -12 10 -13 9 -8 -5 5
-12 2 -15 -12 -10 -11 3 -15 2 -8 -3 5 -4 10 -18 10 -30 0 -14 -4 -19 -11 -13
-7 6 -11 2 -12 -11 -1 -11 2 -17 7 -14 5 3 11 1 15 -4 3 -6 -5 -8 -20 -5 -24
4 -25 3 -14 -18 11 -21 11 -22 -5 -9 -14 12 -16 12 -10 -4 5 -11 3 -16 -2 -12
-6 3 -11 -3 -11 -14 -1 -11 3 -17 8 -13 6 3 5 -3 -3 -15 -7 -12 -18 -21 -25
-21 -7 0 -13 -5 -13 -11 0 -5 5 -7 12 -3 7 4 8 3 4 -4 -4 -7 -15 -12 -24 -12
-15 0 -15 -2 -2 -10 12 -8 12 -10 1 -10 -8 0 -11 -7 -8 -19 3 -15 1 -18 -11
-14 -11 5 -13 3 -7 -7 6 -10 4 -12 -9 -7 -12 5 -15 3 -9 -6 10 -17 12 -57 1
-51 -4 3 -5 11 -1 17 4 7 -1 6 -11 -2 -13 -11 -14 -16 -4 -22 12 -8 4 -13 -15
-10 -5 1 -6 -3 -3 -8 4 -5 0 -12 -6 -15 -7 -3 -2 -3 12 0 19 4 22 3 10 -5 -8
-6 -15 -16 -15 -23 0 -7 -6 -14 -12 -14 -26 -3 -28 -5 -13 -14 13 -8 12 -10
-4 -10 -11 0 -16 -5 -13 -14 3 -7 0 -19 -6 -26 -7 -8 -7 -10 -1 -7 6 3 11 0
11 -7 0 -8 -6 -12 -13 -9 -8 3 -11 -2 -7 -16 3 -14 0 -23 -11 -27 -9 -3 -16
-10 -16 -15 0 -4 7 -6 16 -2 14 5 13 3 -2 -15 -20 -24 -30 -29 -18 -10 5 7 3
8 -6 3 -10 -6 -9 -11 5 -22 11 -7 14 -13 9 -13 -14 0 -54 -39 -54 -52 0 -7 7
-3 16 8 14 18 15 18 4 -3 -6 -13 -18 -23 -26 -23 -14 0 -14 -2 0 -16 21 -20
20 -25 -1 -17 -16 6 -16 5 -4 -10 12 -16 12 -17 -5 -11 -10 4 -16 4 -12 0 4
-5 -2 -23 -12 -41 -14 -25 -16 -36 -7 -45 9 -9 9 -11 1 -7 -7 4 -15 0 -18 -9
-3 -8 -2 -13 2 -10 4 2 7 -8 7 -24 0 -18 -4 -26 -12 -23 -8 3 -13 -4 -13 -19
0 -13 -6 -30 -12 -37 -9 -10 -9 -12 -1 -7 6 3 15 2 18 -4 4 -6 3 -10 -2 -9 -4
1 -15 1 -23 0 -13 -1 -13 -2 0 -11 13 -8 12 -10 -3 -10 -15 0 -16 -3 -6 -22
10 -19 9 -20 -7 -14 -15 6 -16 4 -7 -5 9 -9 6 -18 -13 -37 -14 -16 -20 -30
-15 -35 11 -11 3 -39 -9 -32 -5 3 -7 -3 -6 -12 2 -10 -2 -22 -8 -26 -7 -6 -5
-7 6 -3 12 3 15 1 11 -10 -3 -7 -9 -14 -15 -14 -5 0 -6 -5 -3 -10 4 -6 12 -7
18 -3 7 4 6 0 -2 -10 -15 -19 -26 -23 -15 -5 4 7 3 8 -4 4 -16 -10 -15 -36 1
-32 6 1 9 1 4 -1 -4 -3 -4 -10 -1 -15 4 -6 2 -8 -4 -4 -6 3 -14 1 -17 -5 -10
-15 -12 -78 -3 -73 4 3 5 -2 2 -10 -3 -9 -9 -14 -13 -11 -4 2 -8 -2 -8 -10 0
-8 4 -12 8 -9 4 2 11 -1 15 -8 4 -7 4 -10 -1 -6 -4 4 -16 3 -27 -3 -14 -7 -16
-14 -9 -23 6 -7 6 -17 1 -26 -6 -9 -4 -20 3 -29 9 -12 9 -13 0 -7 -8 4 -13 1
-13 -9 0 -10 5 -14 12 -9 7 3 0 -5 -17 -19 -30 -26 -30 -26 -5 -21 14 2 19 2
12 -2 -6 -3 -10 -10 -6 -15 3 -5 0 -9 -5 -9 -6 0 -11 -5 -11 -11 0 -5 4 -8 9
-4 5 3 13 0 17 -6 4 -8 3 -9 -4 -5 -15 9 -34 -28 -21 -41 8 -8 7 -13 -2 -18
-8 -6 -10 -4 -4 6 5 8 4 11 -1 6 -9 -9 -10 -13 -13 -43 0 -9 -6 -12 -13 -8 -7
4 -8 3 -4 -5 4 -6 11 -9 15 -7 4 3 7 -4 8 -14 1 -11 -2 -22 -8 -25 -5 -3 -6 2
-3 12 5 15 4 15 -4 3 -8 -10 -7 -19 1 -29 8 -10 8 -13 1 -8 -16 10 -25 -44
-11 -62 10 -12 9 -14 -5 -8 -12 4 -15 2 -12 -8 3 -8 13 -11 22 -8 13 4 14 3 3
-5 -8 -6 -10 -15 -5 -23 6 -12 5 -12 -8 -1 -14 11 -16 10 -11 -7 3 -12 9 -19
13 -16 5 3 12 0 16 -6 4 -7 3 -9 -2 -6 -6 3 -16 -3 -23 -15 -7 -11 -8 -17 -3
-14 6 3 13 -1 16 -10 3 -8 2 -13 -2 -10 -4 3 -14 -4 -21 -16 -7 -11 -8 -17 -2
-13 6 3 11 -1 11 -10 0 -9 -4 -14 -9 -10 -5 3 -13 0 -17 -6 -4 -7 -3 -9 3 -6
12 8 22 -12 16 -31 -3 -6 -10 -9 -16 -6 -8 5 -8 2 1 -7 16 -17 16 -32 -1 -23
-7 5 -7 1 2 -10 13 -15 13 -19 0 -27 -8 -5 -9 -9 -3 -9 7 0 15 -7 18 -16 3 -8
2 -13 -3 -10 -5 3 -12 -1 -15 -10 -9 -24 -7 -31 4 -14 7 10 10 11 10 2 0 -7
-7 -15 -15 -18 -8 -4 -15 -10 -15 -16 0 -5 6 -6 13 -1 7 4 6 -3 -4 -17 -17
-27 -15 -54 4 -44 8 5 8 2 0 -6 -10 -11 -9 -18 5 -34 13 -16 13 -18 1 -8 -22
17 -33 2 -11 -15 9 -8 12 -12 6 -9 -17 8 -11 -58 6 -79 7 -9 9 -15 4 -14 -23
4 -26 -3 -8 -23 10 -12 14 -18 7 -14 -7 4 -17 -3 -24 -16 -11 -20 -11 -22 3
-10 13 10 18 10 24 1 5 -8 3 -9 -6 -4 -10 6 -12 3 -8 -13 4 -12 3 -20 -2 -17
-4 3 -11 -2 -14 -11 -3 -8 -2 -12 4 -9 12 8 9 -36 -4 -54 -8 -11 -8 -13 0 -8
7 4 15 0 18 -9 9 -23 7 -31 -3 -16 -7 11 -9 11 -14 -2 -4 -9 -2 -16 2 -16 14
0 21 -29 9 -36 -7 -5 -8 -2 -3 6 6 9 4 11 -4 5 -9 -5 -10 -10 -2 -18 7 -7 7
-17 -1 -31 -9 -18 -9 -19 3 -9 11 9 14 7 14 -12 0 -13 -3 -21 -6 -19 -4 2 -10
-3 -13 -12 -8 -21 -8 -24 5 -24 5 0 8 4 5 8 -3 5 1 9 9 9 11 0 12 -4 4 -13 -6
-7 -8 -18 -5 -23 4 -5 1 -13 -5 -17 -8 -5 -9 -3 -4 6 6 9 4 11 -4 6 -9 -6 -9
-12 3 -25 9 -10 16 -22 16 -27 0 -5 -5 -2 -10 6 -7 11 -9 3 -7 -27 1 -23 6
-45 10 -49 3 -4 4 3 2 15 -2 12 0 19 5 16 10 -6 8 -24 -4 -44 -7 -11 -5 -13 7
-8 22 8 22 -2 0 -18 -13 -9 -13 -14 -3 -20 9 -6 11 -4 5 5 -5 8 -4 11 3 6 7
-4 8 -17 2 -35 -5 -17 -4 -33 2 -39 6 -6 6 -12 -1 -16 -6 -4 -11 -12 -11 -17
0 -6 4 -8 8 -5 4 2 8 -4 8 -15 0 -10 -4 -19 -9 -19 -4 0 -5 -5 -2 -10 4 -6 11
-8 16 -5 5 3 6 -1 3 -9 -3 -9 -11 -13 -18 -9 -8 5 -8 3 1 -8 6 -8 11 -16 12
-19 0 -19 15 -39 24 -33 6 3 7 1 3 -6 -4 -6 -12 -9 -17 -6 -5 4 -9 2 -9 -4 0
-5 6 -11 13 -14 9 -4 9 -7 0 -18 -15 -15 -17 -33 -4 -24 5 3 13 1 16 -5 4 -6
1 -9 -6 -8 -21 5 -18 -42 3 -62 12 -11 16 -20 9 -24 -17 -11 -9 -55 9 -48 13
5 13 3 1 -11 -11 -14 -11 -17 0 -17 9 0 7 -5 -5 -11 -17 -11 -17 -13 10 -36
16 -13 25 -22 19 -20 -5 3 -17 -2 -25 -11 -13 -14 -12 -15 3 -9 9 3 19 2 22
-3 4 -6 2 -10 -4 -10 -11 0 -9 -19 3 -39 6 -10 5 -12 -2 -7 -7 4 -12 2 -12 -3
0 -6 8 -11 18 -12 14 0 15 -1 1 -7 -12 -6 -13 -11 -4 -29 7 -13 15 -20 20 -15
5 4 5 1 1 -6 -4 -7 -9 -25 -12 -40 -4 -21 -2 -24 7 -12 9 12 10 11 6 -7 -4
-17 -1 -20 12 -15 14 5 14 4 2 -11 -11 -14 -11 -17 0 -17 11 0 11 -2 -1 -10
-13 -9 -13 -10 0 -10 13 0 13 -1 0 -10 -10 -6 -11 -10 -2 -10 6 0 12 -5 12
-11 0 -5 -5 -7 -12 -3 -7 4 -8 3 -4 -5 4 -6 12 -8 18 -5 7 5 9 1 5 -9 -3 -10
-2 -17 3 -17 6 0 10 -8 10 -17 0 -14 -2 -15 -9 -4 -6 9 -8 4 -7 -18 0 -22 5
-30 15 -26 12 5 12 3 0 -12 -12 -15 -12 -16 3 -10 19 7 21 -12 3 -25 -6 -5 -5
-8 3 -8 6 0 12 -5 12 -11 0 -5 -4 -8 -8 -5 -5 3 -9 -1 -9 -9 0 -8 2 -13 5 -10
5 5 32 -20 32 -30 0 -3 -4 -3 -10 0 -5 3 -10 1 -10 -4 0 -6 5 -11 11 -11 8 0
8 -4 -1 -14 -9 -12 -7 -17 9 -28 12 -7 21 -16 21 -21 0 -4 -4 -6 -9 -3 -11 7
-8 -8 6 -44 8 -18 7 -27 -1 -32 -10 -7 6 -13 27 -9 4 1 3 -7 -2 -18 -8 -14 -5
-24 13 -45 22 -26 27 -58 13 -72 -4 -4 -7 -12 -7 -18 0 -6 5 -4 11 4 9 12 10
11 6 -8 -3 -12 -1 -20 3 -17 5 3 9 -3 10 -12 2 -55 6 -70 17 -70 7 0 9 5 6 11
-4 6 1 5 10 -3 17 -13 24 -26 10 -18 -5 3 -13 0 -19 -7 -8 -8 -7 -15 2 -23 6
-7 14 -9 17 -6 8 8 3 -20 -7 -36 -6 -10 -5 -12 3 -7 8 5 11 3 9 -7 -2 -9 6
-23 17 -32 17 -14 17 -16 2 -11 -9 3 -17 3 -17 0 0 -11 28 -33 34 -27 3 4 6 1
6 -5 0 -7 -6 -12 -12 -12 -9 0 -8 -3 2 -9 8 -6 17 -8 20 -6 3 2 6 -7 6 -20 0
-13 -4 -22 -8 -19 -4 3 -5 -2 -2 -10 3 -9 12 -16 20 -16 8 0 14 -4 14 -10 0
-5 -7 -7 -15 -4 -11 5 -13 2 -9 -10 3 -9 11 -13 17 -9 6 4 8 0 4 -10 -3 -10
-2 -17 4 -17 6 0 7 -4 4 -10 -3 -5 2 -10 12 -10 15 0 16 -2 3 -10 -8 -5 -10
-10 -4 -10 7 0 15 -7 18 -16 5 -14 4 -15 -9 -4 -13 11 -14 10 -9 -4 3 -9 10
-16 15 -16 4 0 5 -7 2 -17 -5 -12 -3 -14 7 -8 10 6 12 4 7 -8 -3 -10 -3 -17 2
-17 5 0 7 -11 6 -25 -2 -15 4 -30 14 -38 21 -14 38 -52 18 -40 -6 4 -4 -5 6
-20 10 -15 15 -33 10 -40 -5 -8 -2 -8 9 1 13 10 18 10 24 1 4 -8 3 -9 -4 -5
-7 4 -12 1 -12 -9 0 -10 5 -13 12 -9 8 5 9 2 5 -9 -3 -9 0 -23 8 -30 11 -11
11 -17 2 -27 -9 -10 -9 -11 0 -6 7 4 13 -4 15 -21 2 -16 8 -28 15 -28 6 0 15
-4 20 -9 5 -5 3 -6 -4 -2 -8 4 -13 1 -13 -9 0 -10 5 -13 13 -9 9 6 9 5 0 -7
-10 -13 -9 -20 7 -36 11 -12 17 -31 15 -43 -3 -15 3 -23 21 -30 14 -6 22 -14
19 -20 -3 -5 -8 -10 -11 -10 -3 0 -2 5 2 12 5 7 3 8 -6 3 -9 -6 -6 -13 12 -29
13 -11 18 -17 11 -12 -10 6 -12 4 -7 -8 3 -9 10 -16 15 -16 5 0 8 -3 8 -7 -3
-20 2 -33 12 -33 8 0 8 4 0 14 -8 10 -9 16 -1 21 6 4 9 1 8 -7 -2 -7 4 -12 12
-10 12 3 12 0 -2 -14 -13 -13 -14 -21 -6 -40 6 -13 15 -24 20 -24 5 0 1 12 -8
28 l-16 27 20 -25 c11 -13 19 -28 16 -31 -2 -4 -1 -9 3 -12 5 -2 3 -3 -3 -1
-6 1 -11 -4 -11 -11 0 -8 3 -14 6 -13 18 2 31 -3 31 -12 0 -5 -8 -7 -17 -3
-16 5 -15 4 1 -9 10 -8 16 -19 13 -24 -7 -12 2 -27 28 -43 14 -9 15 -11 3 -7
-12 3 -15 1 -11 -10 3 -8 11 -13 18 -10 9 3 11 -2 8 -15 -4 -15 0 -22 16 -26
23 -6 28 -28 9 -36 -8 -3 -5 -6 5 -6 11 -1 15 -5 11 -13 -5 -7 -2 -9 8 -6 11
5 14 1 10 -17 -3 -16 1 -24 14 -27 10 -1 18 -13 19 -25 1 -13 -3 -20 -9 -16
-6 3 -5 0 2 -8 11 -12 14 -12 22 1 5 8 10 10 10 4 0 -5 -5 -15 -12 -22 -9 -9
-9 -12 1 -12 8 0 11 -6 7 -15 -3 -9 3 -23 14 -32 10 -9 17 -20 14 -25 -3 -4
10 -17 28 -28 23 -14 27 -20 15 -20 -10 0 -15 -5 -12 -10 4 -6 11 -8 16 -5 5
4 9 1 9 -5 0 -6 5 -8 12 -4 7 4 8 3 4 -5 -4 -6 -13 -9 -19 -5 -7 3 -4 -1 5 -9
10 -8 19 -26 20 -40 2 -22 5 -24 23 -15 20 11 20 11 1 -11 -16 -18 -17 -21 -3
-16 12 5 15 2 12 -13 -2 -12 3 -26 11 -33 8 -6 14 -18 14 -26 0 -8 5 -11 11
-8 6 4 9 1 8 -6 -4 -26 12 -48 29 -41 14 5 15 3 4 -10 -10 -13 -9 -18 5 -29
17 -13 17 -13 3 6 -14 19 -14 19 3 6 10 -8 16 -20 13 -28 -3 -7 1 -13 10 -13
12 0 13 -4 3 -22 -11 -21 -11 -22 5 -9 9 8 19 11 23 7 3 -3 1 -6 -5 -6 -18 0
-8 -38 16 -61 12 -11 20 -24 17 -29 -3 -6 1 -7 9 -4 11 4 13 0 9 -15 -3 -12
-1 -21 6 -21 6 0 11 -6 11 -14 0 -8 7 -17 16 -20 9 -4 14 -13 10 -22 -3 -8 -2
-12 4 -9 6 3 10 -1 10 -10 0 -9 4 -13 10 -10 5 3 10 -1 10 -10 0 -10 5 -13 13
-9 7 5 6 0 -3 -11 -12 -15 -12 -17 -1 -10 11 6 13 4 7 -10 -5 -14 -4 -16 7 -6
12 9 14 7 12 -14 -2 -13 0 -24 3 -24 4 1 14 1 22 0 12 -1 12 -3 2 -10 -11 -7
-11 -11 2 -23 8 -9 12 -18 9 -22 -4 -3 1 -6 10 -6 9 0 17 -5 17 -11 0 -5 -5
-7 -12 -3 -6 4 -8 3 -4 -4 3 -6 16 -9 27 -7 16 3 18 1 10 -9 -9 -10 -4 -21 21
-47 18 -18 25 -27 15 -20 -15 12 -17 12 -11 -3 3 -9 12 -16 19 -16 7 0 16 -7
19 -16 6 -14 4 -15 -11 -4 -10 7 -3 -1 16 -19 19 -17 28 -31 20 -31 -10 -1 -9
-4 4 -11 9 -5 23 -7 30 -4 6 4 4 0 -6 -8 -16 -13 -16 -15 -2 -21 9 -3 13 -11
9 -18 -5 -8 -2 -9 9 -5 9 3 19 1 23 -5 4 -6 3 -8 -4 -4 -6 3 -13 2 -17 -4 -3
-5 0 -10 8 -10 14 0 42 -47 38 -63 -1 -5 4 -5 10 -2 8 5 8 10 0 18 -14 14 -14
27 0 27 5 0 8 -4 4 -9 -3 -5 -1 -12 5 -16 6 -4 8 -11 5 -16 -4 -5 -3 -15 2
-21 4 -7 8 -15 9 -18 5 -24 18 -38 31 -33 10 4 14 2 10 -4 -10 -16 3 -44 16
-36 6 4 8 0 4 -10 -6 -17 29 -51 44 -42 4 3 10 -2 13 -11 3 -8 2 -12 -4 -9 -6
3 -10 1 -10 -4 0 -6 7 -11 16 -11 8 0 12 -4 9 -10 -3 -6 -1 -10 5 -10 6 0 8
-5 5 -10 -3 -6 -1 -10 4 -10 6 0 11 -5 11 -11 0 -5 -5 -7 -12 -3 -7 4 -8 3 -4
-5 4 -6 12 -8 18 -5 7 5 9 2 6 -8 -8 -18 46 -62 65 -53 6 3 4 0 -5 -7 -15 -11
-15 -14 5 -42 11 -17 27 -35 34 -39 7 -5 10 -14 7 -20 -5 -8 -3 -8 7 1 7 6 18
12 24 12 5 0 4 -4 -4 -9 -8 -5 -11 -16 -7 -26 5 -14 9 -15 21 -5 12 10 13 8
10 -9 -4 -21 18 -51 37 -51 6 0 6 -6 -2 -15 -11 -13 -10 -14 3 -10 8 4 18 1
22 -4 3 -6 10 -9 14 -6 5 2 7 -7 5 -20 -3 -28 5 -32 25 -12 10 10 11 9 5 -6
-3 -10 1 -28 12 -45 10 -15 17 -31 16 -36 -2 -5 4 -4 12 3 12 10 14 9 9 -8 -3
-13 -1 -21 6 -21 7 0 9 5 5 12 -4 7 -3 8 5 4 8 -5 9 -12 2 -19 -10 -13 11 -52
22 -40 4 3 7 1 7 -6 0 -7 4 -9 10 -6 5 3 10 -1 10 -9 0 -16 43 -60 61 -62 20
-3 21 -5 10 -17 -14 -17 -4 -28 17 -19 15 5 15 4 3 -12 -13 -15 -12 -18 7 -22
11 -4 23 -13 27 -22 5 -14 4 -15 -6 -4 -7 6 -20 12 -29 12 -8 0 0 -8 17 -16
18 -9 31 -19 29 -23 -2 -3 11 -17 30 -31 18 -14 31 -31 29 -38 -3 -7 7 -17 20
-22 14 -5 25 -15 25 -22 0 -9 -3 -8 -10 2 -5 8 -10 11 -10 5 1 -5 8 -19 17
-30 13 -17 15 -17 9 -2 -3 11 -2 16 4 12 6 -3 10 -13 10 -21 0 -8 5 -14 10
-14 6 0 10 -12 11 -27 l1 -28 8 25 c7 23 8 23 9 3 1 -12 6 -25 13 -29 7 -5 8
-3 3 6 -5 8 -4 11 3 6 6 -4 8 -14 5 -23 -4 -10 -2 -14 4 -10 6 4 13 -2 16 -13
3 -11 10 -20 17 -20 6 0 8 5 4 12 -4 7 -3 8 4 4 9 -5 9 -13 2 -26 -9 -16 -8
-18 6 -13 10 3 15 2 12 -3 -8 -12 17 -35 28 -26 4 4 4 -1 1 -11 -4 -11 -1 -17
9 -17 9 0 12 -5 8 -12 -5 -8 -2 -9 10 -5 9 4 15 3 11 -2 -3 -6 3 -15 12 -21
17 -11 17 -11 1 -6 -10 3 -18 1 -18 -4 0 -6 9 -10 21 -10 13 0 18 -4 13 -12
-6 -10 -5 -10 8 0 13 10 15 9 13 -13 -3 -22 -1 -23 16 -14 11 5 19 6 18 2 -4
-25 3 -43 17 -43 8 0 12 -4 9 -10 -3 -5 -1 -10 4 -10 6 0 11 -5 11 -11 0 -5
-6 -7 -12 -3 -9 5 -8 2 1 -9 10 -13 17 -14 27 -7 10 9 11 6 6 -12 -5 -20 -3
-21 10 -10 14 11 16 10 11 -7 -6 -23 12 -29 21 -8 3 6 3 1 0 -12 -5 -19 -3
-23 10 -18 8 3 18 2 21 -4 4 -5 11 -7 16 -4 5 4 9 1 9 -4 0 -14 -13 -14 -28 1
-7 7 -12 9 -12 5 0 -12 49 -55 57 -48 4 3 1 -3 -7 -13 -10 -13 -10 -17 -2 -12
7 4 12 1 12 -8 0 -9 5 -16 11 -16 5 0 7 5 3 12 -4 7 -3 8 4 4 6 -4 9 -13 6
-20 -3 -8 0 -17 7 -22 7 -4 10 -3 6 3 -3 5 0 10 7 10 9 0 13 -9 10 -24 -3 -17
0 -23 13 -23 16 0 16 2 3 11 -13 9 -13 10 0 6 8 -2 14 -12 12 -22 -3 -12 1
-16 12 -12 21 8 39 -16 23 -32 -9 -10 -8 -11 6 -5 13 5 16 2 10 -12 -5 -13 -3
-15 7 -9 10 6 12 4 6 -10 -5 -15 -4 -16 8 -6 12 10 13 8 9 -10 -5 -18 -3 -20
18 -15 13 3 18 3 12 0 -21 -9 -15 -27 8 -21 16 4 18 3 8 -9 -6 -8 -7 -14 -2
-14 5 0 17 -14 27 -31 13 -22 21 -27 31 -19 17 14 39 -11 25 -28 -6 -7 -7 -10
-4 -7 4 3 13 -3 21 -13 12 -16 13 -16 7 3 -5 18 -4 18 6 2 6 -9 9 -21 5 -26
-3 -5 7 -8 22 -6 26 3 26 2 8 -12 -19 -15 -19 -15 3 -10 12 3 22 1 22 -5 0 -5
4 -6 10 -3 6 4 7 -1 3 -11 -5 -13 -3 -15 7 -9 8 5 11 4 7 -3 -4 -5 -4 -17 -1
-26 5 -12 10 -13 25 -6 15 8 17 7 13 -5 -4 -8 -10 -15 -16 -15 -5 0 -2 -7 7
-16 13 -14 18 -14 33 -2 15 12 16 11 4 -4 -12 -14 -11 -21 1 -38 10 -14 17
-17 22 -11 3 6 11 9 16 5 6 -4 6 -11 -1 -19 -10 -11 -8 -13 9 -10 14 2 21 -1
21 -11 0 -9 -5 -12 -12 -8 -7 4 -8 3 -4 -4 4 -6 14 -8 23 -5 13 5 15 2 10 -12
-6 -15 -5 -16 8 -5 9 7 15 9 14 4 -4 -21 2 -35 11 -29 5 3 11 1 11 -4 1 -6 2
-15 3 -20 0 -5 5 -13 10 -18 5 -5 6 -3 2 5 -4 7 -1 12 9 12 9 0 14 -3 12 -7
-3 -5 1 -14 9 -21 8 -7 14 -10 14 -6 0 3 7 1 15 -6 8 -7 12 -16 9 -21 -3 -5 0
-9 5 -9 6 0 11 -5 11 -11 0 -5 -5 -7 -12 -3 -7 4 -8 3 -4 -4 4 -6 13 -9 21 -5
9 3 15 -1 15 -11 0 -9 5 -16 11 -16 5 0 7 -5 3 -11 -4 -8 0 -8 15 0 12 7 20 8
19 4 -3 -13 13 -53 22 -53 5 0 11 6 14 13 3 6 3 2 0 -10 -5 -22 7 -29 39 -24
4 0 6 -2 5 -6 -2 -12 14 -46 28 -60 7 -7 14 -17 16 -23 2 -6 12 -12 23 -14 13
-2 19 -10 17 -22 -3 -15 -1 -16 11 -5 18 15 30 2 36 -38 0 -5 10 -13 21 -16
11 -3 20 -11 20 -16 0 -6 -5 -7 -12 -3 -7 4 -8 3 -4 -4 4 -6 14 -8 23 -5 13 5
15 2 10 -12 -6 -15 -5 -16 8 -5 9 7 15 9 14 4 -4 -22 2 -35 13 -28 8 5 9 2 5
-10 -4 -9 -3 -15 2 -11 6 3 14 -3 20 -12 9 -16 12 -16 21 -3 9 12 10 10 5 -8
-6 -21 6 -28 37 -23 5 0 7 -2 6 -7 -2 -11 14 -45 28 -59 7 -7 14 -17 16 -23 2
-6 12 -12 23 -14 11 -2 19 -10 17 -18 -1 -10 5 -15 20 -14 13 0 23 -5 24 -11
1 -7 2 -17 3 -23 0 -5 10 -10 21 -10 14 0 20 -7 20 -21 0 -16 4 -19 23 -14 18
5 19 4 7 -5 -11 -9 -12 -13 -2 -17 7 -2 18 -11 26 -18 7 -8 17 -11 21 -7 4 4
4 -4 0 -18 -7 -23 -7 -24 11 -10 10 8 16 10 12 6 -12 -14 42 -58 64 -53 16 5
17 3 7 -9 -9 -11 -8 -14 5 -14 10 0 15 -4 12 -9 -3 -5 1 -12 10 -15 8 -3 12
-11 8 -17 -4 -7 2 -6 17 2 22 11 23 11 10 -4 -7 -10 -9 -17 -4 -17 5 0 17 -14
27 -31 13 -22 21 -27 31 -19 18 15 39 -11 22 -30 -9 -10 -9 -11 1 -6 6 4 12 2
12 -5 0 -7 8 -9 21 -6 16 4 18 3 8 -9 -11 -14 -1 -20 25 -15 5 1 3 -6 -5 -15
-13 -16 -12 -16 11 -4 20 10 23 10 13 0 -10 -11 -7 -18 15 -37 15 -12 33 -23
40 -23 6 0 12 -5 12 -11 0 -6 9 -9 20 -6 11 3 18 0 17 -7 -1 -6 4 -10 11 -8 8
1 11 -2 7 -8 -5 -8 -12 -7 -23 2 -15 12 -16 11 -3 -5 8 -10 20 -16 27 -13 8 3
11 0 8 -8 -3 -8 0 -17 7 -22 7 -4 10 -3 6 3 -3 5 0 10 7 10 9 0 13 -9 10 -24
-3 -17 0 -23 13 -23 16 0 16 2 3 11 -13 9 -13 10 0 6 8 -2 14 -11 12 -19 -1
-9 5 -18 13 -22 9 -3 13 -2 10 4 -3 6 -1 10 4 10 6 0 11 -5 11 -11 0 -5 6 -7
13 -3 7 5 7 1 -3 -12 -8 -10 -10 -16 -6 -12 5 5 15 -1 23 -12 8 -11 23 -20 35
-20 17 0 19 -2 8 -16 -8 -8 -9 -14 -4 -13 24 4 74 -26 74 -46 0 -5 -11 2 -25
15 -14 13 -25 21 -25 17 0 -17 43 -44 63 -40 18 4 19 3 7 -6 -11 -8 -12 -11
-2 -11 8 0 10 -5 6 -12 -5 -8 0 -7 11 2 11 9 16 10 11 3 -6 -11 3 -17 25 -15
3 1 6 -6 6 -13 0 -9 -5 -12 -12 -7 -6 4 -3 0 7 -9 9 -9 14 -20 10 -24 -4 -5 0
-4 8 1 21 12 41 14 34 3 -3 -5 -10 -6 -16 -3 -6 4 -5 -3 2 -16 8 -15 18 -20
31 -17 16 4 18 3 9 -8 -9 -11 -7 -15 14 -21 16 -4 23 -11 19 -18 -4 -6 1 -5
10 3 15 12 17 12 11 -4 -5 -13 -4 -16 4 -11 7 4 12 2 12 -4 0 -6 5 -8 12 -4 8
5 9 2 5 -9 -4 -11 -1 -17 7 -17 8 0 16 -9 19 -20 3 -11 13 -20 22 -20 9 0 13
-4 10 -10 -3 -6 1 -7 10 -4 9 4 15 3 14 -2 -3 -18 1 -37 7 -31 4 3 19 0 34 -8
15 -8 31 -11 35 -7 4 4 2 -4 -5 -17 -6 -13 -8 -21 -3 -18 5 3 22 -6 38 -21 19
-18 27 -21 22 -9 -11 28 1 19 18 -13 9 -17 20 -28 25 -25 6 4 10 1 10 -5 0 -6
4 -8 10 -5 6 4 7 -1 3 -11 -5 -14 -3 -16 11 -11 10 4 15 3 11 -3 -3 -6 1 -13
9 -16 9 -3 13 -10 10 -15 -3 -5 2 -9 11 -9 10 0 13 5 9 13 -5 8 -2 8 9 -2 9
-7 17 -23 17 -35 0 -11 4 -16 8 -11 4 6 13 11 21 13 12 3 12 1 0 -14 -9 -12
-9 -15 -1 -10 6 4 12 2 12 -3 0 -6 7 -11 15 -11 8 0 15 -5 15 -11 0 -5 -5 -7
-12 -3 -7 4 -8 3 -4 -5 4 -6 11 -9 16 -6 4 3 10 1 12 -5 2 -6 14 -12 27 -15
26 -5 41 -15 23 -15 -7 0 -12 -4 -12 -10 0 -5 7 -10 16 -10 9 0 12 -5 8 -12
-5 -8 0 -7 11 2 17 14 18 13 12 -3 -6 -15 -3 -17 15 -11 21 6 22 5 8 -11 -8
-11 -10 -16 -4 -12 7 4 14 0 17 -8 4 -8 15 -12 27 -10 11 2 18 0 15 -6 -4 -5
-1 -9 5 -9 6 0 8 -4 5 -10 -6 -10 8 -14 34 -10 12 1 13 -1 3 -13 -17 -20 28
-52 48 -34 10 9 11 9 6 0 -4 -7 -2 -13 4 -13 7 0 10 -7 7 -15 -4 -8 -1 -17 5
-21 7 -4 8 -3 4 4 -15 25 10 10 28 -16 9 -15 15 -19 12 -10 -3 10 -1 18 4 18
6 0 10 -11 10 -23 0 -16 9 -28 25 -35 21 -10 23 -9 19 6 -5 14 -4 15 4 2 8
-10 7 -19 -1 -29 -9 -12 -9 -13 1 -7 6 4 12 2 12 -3 0 -6 9 -11 21 -11 14 0
19 -5 16 -15 -7 -18 9 -30 19 -14 5 8 3 9 -6 4 -9 -5 -11 -4 -6 4 11 17 26 3
19 -17 -6 -15 -5 -15 10 -3 15 12 17 12 11 -4 -6 -15 -5 -16 17 -5 21 12 23
12 11 -2 -14 -17 -1 -35 17 -24 5 3 11 -1 14 -9 4 -10 1 -12 -11 -9 -15 5 -15
4 -1 -5 9 -6 26 -9 38 -6 12 2 19 0 16 -6 -4 -5 -11 -7 -16 -4 -5 4 -9 1 -9
-6 0 -6 8 -9 20 -6 10 3 24 -1 31 -9 6 -8 16 -11 22 -7 5 3 7 1 4 -4 -4 -6 0
-14 9 -17 14 -5 14 -9 3 -23 -8 -9 -9 -14 -2 -10 6 4 18 0 26 -8 9 -8 23 -15
32 -15 9 0 13 -5 10 -10 -9 -14 8 -13 23 2 7 7 12 9 12 6 0 -4 -7 -14 -16 -22
-14 -15 -14 -16 5 -16 12 0 21 -4 21 -10 0 -5 9 -10 20 -10 11 0 20 -5 20 -11
0 -5 -6 -7 -12 -3 -9 5 -9 3 1 -9 7 -9 17 -14 22 -11 5 3 9 -1 10 -8 0 -7 4
-4 9 7 8 20 9 19 9 -1 1 -27 26 -48 43 -38 7 4 10 3 5 -1 -11 -13 43 -64 61
-58 11 5 13 3 7 -7 -6 -10 -4 -12 10 -6 15 5 16 4 6 -8 -9 -11 -9 -16 0 -22 8
-4 9 -3 5 4 -4 7 -3 12 2 12 5 0 14 -10 21 -22 6 -13 9 -15 7 -6 -3 10 -1 18
4 18 6 0 10 -5 10 -11 0 -5 6 -7 13 -3 7 5 6 0 -3 -11 -14 -17 -13 -17 10 -10
14 4 22 4 18 0 -12 -12 32 -45 50 -38 15 6 15 5 2 -13 -8 -10 -11 -16 -6 -12
4 3 21 -8 38 -25 16 -18 33 -33 36 -33 32 -7 51 -18 45 -27 -4 -6 0 -8 10 -4
9 3 19 1 23 -5 4 -6 3 -8 -3 -5 -5 3 -10 0 -10 -8 0 -11 5 -12 20 -3 17 9 19
8 13 -7 -5 -14 -4 -16 7 -7 17 14 28 6 20 -16 -5 -11 -3 -13 7 -7 10 6 12 4 7
-8 -3 -9 -3 -16 1 -16 28 4 42 -3 43 -23 0 -13 3 -17 6 -10 2 6 9 12 14 12 6
0 7 -5 3 -12 -5 -8 -2 -9 9 -5 9 3 19 1 23 -5 4 -7 3 -8 -4 -4 -7 4 -12 2 -12
-5 0 -7 8 -9 21 -6 17 5 18 3 8 -9 -7 -8 -8 -14 -3 -13 28 5 54 -3 54 -16 0
-13 4 -14 21 -5 19 11 20 10 9 -11 -10 -18 -10 -21 1 -17 14 6 42 -16 33 -25
-3 -3 3 -8 14 -11 29 -9 63 -42 54 -52 -4 -4 1 -2 10 5 15 11 18 11 18 -2 0
-9 5 -19 12 -23 7 -4 8 -3 4 4 -4 7 -2 12 3 12 10 0 15 -13 9 -25 -6 -10 37
-33 46 -24 12 11 56 -28 56 -48 0 -8 4 -11 10 -8 6 3 10 2 10 -4 0 -13 55 -42
64 -34 3 4 6 2 6 -4 0 -17 34 -50 48 -46 6 3 12 -3 12 -14 0 -14 2 -15 9 -4 7
11 14 7 31 -20 12 -19 19 -25 16 -14 -6 20 -6 20 9 1 8 -11 15 -23 15 -28 0
-4 5 -8 11 -8 5 0 7 5 3 12 -4 7 -3 8 5 4 6 -4 9 -11 6 -16 -7 -12 23 -33 39
-27 8 3 17 -1 20 -9 3 -9 1 -12 -4 -9 -6 3 -10 4 -10 1 0 -3 9 -10 20 -16 16
-9 19 -8 14 7 -3 10 2 7 10 -7 8 -14 15 -21 16 -17 0 4 19 -10 42 -32 32 -32
45 -38 55 -29 11 9 12 7 6 -7 -5 -15 -3 -17 12 -12 16 7 16 5 4 -10 -9 -11
-10 -14 -2 -9 8 4 13 2 13 -4 0 -6 4 -8 10 -5 5 3 22 -6 36 -20 17 -17 25 -21
20 -10 -3 10 7 3 23 -14 26 -28 41 -36 56 -28 3 1 14 -12 24 -30 15 -24 26
-31 45 -29 19 2 23 0 17 -8 -7 -8 2 -19 27 -36 20 -14 41 -31 45 -38 5 -7 13
-9 19 -6 6 4 15 0 20 -7 7 -10 7 -7 3 9 -4 13 -2 22 5 22 6 0 9 -4 5 -9 -3 -5
1 -16 9 -24 8 -8 12 -17 9 -21 -4 -3 1 -6 11 -6 10 0 14 5 10 12 -4 6 -3 8 4
5 5 -4 8 -17 5 -30 -5 -22 -5 -22 10 -2 l16 20 -2 -20 c-1 -14 4 -20 16 -19
13 1 15 -2 8 -10 -7 -8 -4 -12 10 -13 11 -1 17 2 15 6 -3 4 1 8 9 8 10 0 12
-4 5 -12 -7 -8 -4 -17 8 -27 29 -25 40 -29 48 -17 4 7 3 9 -3 6 -6 -4 -19 0
-29 9 -18 15 -18 15 1 6 11 -6 25 -10 30 -11 6 -1 11 -5 11 -11 1 -5 2 -15 3
-21 1 -8 5 -8 16 1 12 10 14 8 10 -8 -3 -15 1 -19 16 -15 13 4 19 0 19 -11 0
-9 7 -16 16 -16 8 0 13 -3 11 -7 -3 -5 7 -17 21 -27 14 -11 22 -14 18 -8 -13
22 7 12 29 -14 15 -18 29 -25 40 -21 9 4 14 3 12 -1 -3 -4 2 -14 11 -22 14
-13 15 -12 9 3 -3 9 -2 19 4 22 5 4 9 3 8 -2 -1 -4 -1 -16 0 -27 1 -16 3 -17
18 -5 12 10 15 11 9 1 -11 -18 13 -45 28 -33 8 6 17 6 26 -1 12 -8 12 -9 -2
-4 -10 3 -18 1 -18 -4 0 -9 14 -14 32 -11 5 0 7 -4 5 -10 -1 -6 4 -14 12 -17
9 -3 11 0 6 8 -5 8 -4 11 3 6 6 -4 8 -14 5 -23 -4 -9 -2 -14 3 -10 5 3 30 -8
54 -24 24 -16 50 -27 58 -24 9 3 12 0 9 -9 -3 -8 1 -17 9 -20 8 -3 13 -2 10 2
-3 5 1 9 9 9 8 0 14 -3 13 -6 -2 -18 3 -31 12 -31 5 0 8 6 7 12 -2 7 1 3 7 -9
5 -12 16 -25 24 -28 12 -5 13 -3 2 10 -7 9 -11 18 -8 21 3 2 13 -11 22 -31 15
-32 19 -34 39 -23 19 10 21 9 9 -4 -13 -16 -2 -34 12 -21 10 11 37 12 30 2 -3
-5 -9 -7 -13 -5 -4 3 -8 -2 -8 -10 0 -10 4 -11 11 -4 13 13 29 13 20 -1 -4 -7
2 -6 17 2 21 11 22 10 12 -3 -16 -19 -5 -32 14 -16 7 6 16 8 20 4 3 -3 1 -6
-6 -6 -8 0 -9 -5 -1 -19 6 -12 18 -18 30 -16 12 2 21 -3 25 -16 4 -10 12 -19
18 -19 7 0 18 -9 25 -21 11 -17 16 -19 29 -7 9 7 14 8 10 2 -6 -11 13 -25 38
-29 6 0 9 -7 7 -15 -3 -11 0 -11 12 -1 13 11 15 10 11 -8 -2 -12 0 -19 6 -16
5 4 15 3 22 -2 18 -11 57 -11 64 0 4 6 1 7 -7 2 -9 -5 -11 -4 -6 4 6 9 11 9
22 0 17 -14 19 -23 2 -13 -7 5 -8 3 -3 -6 6 -10 11 -9 22 6 9 13 25 18 48 17
38 -2 56 14 34 29 -11 8 -11 9 2 5 9 -3 23 0 30 6 10 10 10 8 0 -6 -12 -15
-12 -17 3 -11 9 3 16 12 16 19 0 7 7 16 16 19 22 9 26 8 18 -6 -4 -7 -3 -8 5
-4 6 4 8 12 5 18 -5 7 0 9 14 6 15 -4 19 -2 15 9 -3 7 -2 13 3 11 19 -5 53 14
48 27 -3 7 0 16 7 21 8 4 10 3 5 -4 -4 -7 -2 -12 3 -12 6 0 11 6 11 14 0 8 5
18 12 22 7 4 8 3 4 -4 -10 -17 10 -15 27 3 8 8 18 11 23 7 5 -4 2 2 -6 12 -14
18 -14 19 10 6 23 -12 24 -12 11 4 -12 14 -12 16 4 10 13 -5 16 -4 10 5 -6 10
-3 11 14 2 17 -10 22 -9 27 4 3 8 11 12 18 8 7 -4 6 -1 -2 9 -10 13 -9 15 11
13 20 -2 23 1 22 26 -1 15 2 26 7 23 5 -4 7 -13 4 -21 -3 -8 -1 -11 4 -8 6 3
10 13 10 21 0 9 5 12 12 8 8 -5 9 -2 5 10 -6 14 -3 15 14 5 19 -10 20 -9 14
13 -7 22 -7 23 8 3 15 -20 16 -20 26 5 5 14 10 20 10 13 1 -13 31 -11 32 3 0
5 7 13 15 17 8 5 11 14 8 20 -5 9 -4 9 6 0 10 -9 17 -7 32 10 11 12 16 16 12
8 -5 -10 -3 -12 5 -7 7 5 10 15 7 23 -3 8 -2 11 3 8 6 -3 15 3 21 12 9 15 10
14 5 -7 -5 -22 -4 -23 5 -7 7 10 9 25 6 34 -5 13 -4 14 9 3 15 -12 16 -11 19
13 0 6 7 13 14 13 6 1 19 2 28 3 8 0 13 5 10 9 -7 12 26 29 52 27 12 -1 22 2
22 7 0 11 25 38 35 38 3 0 3 -6 -1 -13 -5 -8 -2 -7 9 2 14 11 15 16 5 29 -11
13 -11 14 0 8 9 -5 19 -1 28 13 8 12 20 21 26 21 7 0 4 -6 -6 -13 -16 -12 -16
-14 -3 -14 9 0 19 7 22 15 3 9 12 12 22 8 10 -4 14 -4 11 0 -4 3 1 14 10 23
10 9 13 12 6 8 -7 -5 -15 -3 -20 4 -4 7 -3 9 4 5 6 -3 13 -2 17 3 3 6 13 7 22
4 9 -4 14 -2 10 3 -3 6 3 15 14 22 10 7 19 8 19 3 0 -5 -6 -11 -12 -14 -7 -2
-10 -8 -6 -12 4 -4 15 6 25 22 12 19 25 28 38 25 16 -2 17 -1 5 7 -13 10 -7
15 13 12 4 0 7 7 7 17 0 14 2 15 10 2 10 -16 14 -8 10 25 l-2 20 16 -20 c13
-18 15 -18 16 -3 0 15 31 41 41 35 2 -1 -2 4 -10 10 -18 16 -7 17 20 3 15 -9
27 -5 57 17 20 15 39 29 42 31 2 2 -1 7 -9 11 -10 6 -9 10 4 14 9 4 13 3 10
-3 -3 -6 1 -10 10 -10 11 0 15 5 12 14 -3 8 1 20 9 26 8 7 14 9 14 4 0 -4 7 1
15 12 15 19 15 19 9 -1 -5 -17 -3 -16 16 5 21 25 21 25 15 2 -7 -22 -6 -23 13
-6 11 9 18 23 15 30 -3 9 2 14 12 14 12 0 15 6 11 23 -3 12 -3 16 0 9 5 -10 9
-10 22 0 14 10 15 10 5 -2 -7 -8 -13 -19 -13 -24 0 -6 7 0 16 12 8 12 19 20
24 17 5 -3 11 -1 15 5 4 6 11 7 17 4 7 -4 8 -2 4 5 -6 9 -11 9 -21 1 -9 -8
-15 -8 -20 0 -4 6 -3 10 2 9 4 -1 13 0 18 1 6 1 17 3 25 4 8 0 14 9 14 18 -1
14 2 16 18 7 18 -10 19 -9 8 11 -8 15 -8 20 -1 16 6 -4 11 -2 11 4 0 6 5 8 11
4 6 -3 21 4 33 18 11 13 17 18 12 10 -6 -7 7 -3 27 10 22 14 35 29 33 39 -2 9
3 16 10 16 7 0 11 -4 8 -9 -3 -4 -3 -8 0 -8 3 0 13 15 21 33 8 17 13 24 10 14
-5 -21 8 -22 25 -2 7 8 17 12 22 9 6 -4 5 3 -2 16 -11 20 -10 21 9 10 18 -9
21 -8 22 7 0 10 3 13 6 6 3 -10 7 -10 18 0 7 7 11 15 8 19 -2 5 5 8 16 8 11 0
23 5 26 10 4 6 11 7 17 4 6 -4 5 2 -1 15 -7 12 -8 21 -4 20 22 -4 34 2 27 13
-6 10 -5 10 8 1 15 -13 28 -8 28 9 0 5 -4 7 -8 4 -5 -3 -9 1 -9 9 0 8 5 11 11
7 16 -10 37 -11 31 -2 -3 4 2 13 10 20 8 7 12 17 8 23 -3 6 -1 7 6 3 6 -4 9
-11 7 -15 -3 -4 1 -8 9 -8 8 0 12 4 10 8 -3 3 2 12 10 19 8 7 12 16 9 21 -3 5
2 6 10 3 8 -3 28 3 44 15 16 11 33 17 37 13 5 -4 5 -1 1 6 -5 7 -15 11 -25 7
-12 -5 -13 -3 -5 5 9 9 17 9 34 0 12 -6 24 -9 28 -6 3 3 0 6 -6 6 -7 0 -12 4
-12 10 0 5 3 9 8 9 4 -1 14 -1 22 0 13 1 13 2 0 11 -11 7 -11 10 -2 10 8 0 10
5 6 13 -6 9 -4 9 8 -1 14 -11 18 -10 28 8 6 11 8 26 4 33 -5 8 -2 7 9 -2 15
-12 17 -11 18 5 1 11 1 23 0 27 -1 5 3 6 8 2 6 -3 7 -13 4 -23 -6 -15 -5 -15
10 -3 9 7 17 10 17 6 0 -5 8 -1 18 8 10 10 22 14 27 10 4 -5 5 -2 1 5 -4 7 -2
12 6 12 9 0 9 3 -2 10 -11 7 -11 10 -2 10 8 0 10 5 6 13 -5 8 -2 8 9 -2 15
-12 17 -11 17 8 0 11 5 21 11 21 5 0 7 -6 3 -12 -4 -8 -3 -9 2 -5 5 5 9 16 9
24 0 9 7 18 15 20 13 4 13 3 0 -7 -13 -10 -13 -11 0 -7 8 2 14 11 14 20 -1 10
5 14 17 12 10 -2 21 1 24 6 4 5 11 7 16 4 5 -3 6 1 3 10 -5 11 -2 14 10 9 12
-5 16 0 16 17 0 19 2 21 10 9 8 -13 11 -13 22 -1 11 12 10 12 -2 6 -13 -8 -13
-6 -1 8 7 9 17 14 22 11 5 -3 12 2 15 10 3 9 12 16 20 16 17 0 66 45 57 53 -3
4 1 7 11 7 9 0 15 4 12 8 -2 4 5 14 17 22 20 12 21 12 8 -4 -8 -9 -11 -19 -7
-23 3 -3 6 -1 6 6 0 7 5 9 12 5 6 -4 8 -3 5 3 -3 5 3 22 14 39 10 16 19 24 19
19 0 -6 -5 -16 -10 -21 -7 -7 -6 -11 5 -11 8 0 15 6 15 14 0 23 1 28 12 40 5
6 17 9 26 6 9 -3 14 -2 9 2 -4 5 5 15 20 22 27 12 27 13 3 8 -14 -3 -19 -2
-12 1 6 3 10 10 7 14 -3 5 3 7 14 5 19 -3 37 19 32 39 -1 5 4 5 11 -1 19 -15
50 -12 44 4 -3 8 -1 11 4 8 6 -3 13 1 16 9 3 9 10 16 16 16 5 0 6 -5 2 -12 -4
-7 -3 -8 5 -4 8 6 9 12 2 20 -14 17 -2 29 15 15 10 -8 11 -5 7 13 -4 18 -3 20
6 8 10 -13 15 -8 12 12 0 4 5 5 13 2 7 -3 19 2 26 10 7 9 17 13 24 9 6 -4 4 2
-4 12 -8 10 -10 16 -3 12 14 -9 43 2 43 15 0 6 -7 5 -15 -2 -13 -11 -14 -10
-9 4 4 9 12 15 18 13 21 -8 66 23 66 46 0 18 2 19 10 7 7 -11 10 -11 10 -2 0
7 4 11 9 8 5 -3 20 3 32 15 13 11 19 18 12 15 -6 -4 -14 -3 -17 2 -3 5 1 9 9
10 8 1 22 3 30 4 11 1 12 5 4 14 -7 8 -6 14 2 20 8 5 9 3 4 -6 -6 -10 -4 -12
9 -7 10 4 21 7 24 7 4 0 1 4 -7 9 -12 8 -12 12 -2 25 8 9 18 16 24 16 6 0 2
-7 -9 -15 -10 -8 -14 -15 -8 -15 6 0 21 11 35 26 21 22 21 24 4 18 -21 -8 -20
-6 7 14 12 10 18 10 24 1 5 -8 3 -9 -6 -4 -9 5 -11 4 -6 -4 10 -15 29 -3 22
15 -3 8 -2 13 2 13 4 -1 16 -1 27 0 15 1 17 3 7 10 -10 6 -9 10 7 14 12 3 21
13 21 24 0 15 2 16 10 3 8 -13 10 -13 10 2 0 9 5 20 12 24 7 4 8 3 4 -4 -4 -7
-2 -12 3 -12 6 0 11 5 11 11 0 5 6 7 13 3 7 -5 6 0 -3 11 -10 12 -11 16 -2 11
17 -10 65 41 55 57 -4 8 -2 8 9 -1 13 -10 16 -9 21 9 3 11 9 19 14 16 11 -7
33 19 25 29 -4 5 1 3 10 -4 14 -11 18 -10 27 6 6 11 7 23 3 28 -4 5 0 3 10 -4
12 -10 18 -10 24 -1 4 8 3 9 -4 5 -7 -4 -12 -2 -12 3 0 6 7 11 15 11 8 0 15 5
15 11 0 5 5 7 12 3 7 -4 8 -3 4 4 -4 7 -2 20 4 29 11 17 11 17 6 1 -3 -10 -1
-18 4 -18 6 0 10 9 10 20 0 12 7 20 16 20 14 0 15 2 3 17 -13 15 -12 15 9 4
12 -6 23 -9 23 -6 1 3 2 9 3 14 2 15 16 25 16 12 0 -7 5 -9 10 -6 8 5 7 11 -1
21 -10 12 -9 13 6 8 14 -6 16 -4 10 7 -7 12 -6 12 11 -1 10 -8 16 -11 12 -6
-4 5 -2 18 4 30 7 11 11 24 10 28 -1 5 3 8 9 8 6 0 8 -7 5 -15 -13 -33 -16
-49 -5 -27 7 12 16 22 21 22 5 0 6 5 3 10 -3 6 0 10 8 10 8 0 22 9 32 20 10
11 22 17 26 14 5 -3 6 3 2 13 -6 16 -5 16 10 4 19 -15 23 -1 6 16 -9 9 -7 10
10 6 15 -4 21 -1 21 11 0 9 -5 16 -12 16 -6 0 -8 3 -5 6 4 4 13 2 20 -5 12 -9
23 -1 58 39 24 28 49 48 56 45 7 -2 13 3 13 11 0 8 5 12 10 9 6 -3 10 -1 10 5
0 6 4 8 10 5 6 -3 7 1 4 9 -4 11 0 16 11 16 11 0 15 5 11 16 -4 10 -2 13 6 8
8 -5 9 -2 4 11 -5 14 -4 16 7 7 14 -12 27 -7 27 10 0 5 -6 6 -12 2 -7 -4 -10
-3 -5 1 4 5 17 10 30 12 12 2 25 10 30 18 4 8 14 15 21 15 20 0 49 37 43 54
-4 10 -1 13 7 10 8 -3 17 0 22 7 5 8 3 10 -6 4 -8 -5 -11 -4 -6 3 4 6 13 9 21
5 10 -3 15 1 15 12 0 10 -5 13 -12 9 -7 -4 -8 -3 -4 4 5 9 13 9 28 1 18 -10
19 -8 13 13 -6 18 -4 20 5 12 14 -13 53 -6 44 8 -3 5 -13 4 -22 -4 -15 -12
-16 -11 -3 5 9 11 22 16 33 13 17 -4 17 -2 6 12 -11 13 -11 14 1 7 11 -6 13
-4 7 10 -5 15 -4 16 9 5 12 -10 15 -10 15 4 0 11 5 14 12 10 8 -5 9 -2 5 10
-5 12 0 19 16 25 12 5 25 7 29 5 3 -2 4 6 0 18 -5 21 -4 22 13 8 17 -14 18
-13 12 2 -7 18 29 52 45 42 4 -3 8 2 8 10 0 9 6 16 14 16 8 0 18 5 22 12 4 6
3 8 -3 5 -5 -3 -10 0 -10 8 0 8 4 12 8 10 11 -7 39 6 39 17 0 6 -8 4 -17 -3
-16 -12 -16 -11 0 8 12 13 27 20 40 18 21 -4 22 -4 3 10 -20 15 -12 20 23 16
8 -2 10 2 5 10 -5 9 -2 10 11 5 14 -5 16 -4 7 7 -14 17 -6 28 14 20 8 -3 14
-2 12 3 -2 5 6 20 16 34 10 14 16 17 13 8 -4 -10 -2 -20 3 -23 6 -4 10 1 10
10 0 10 5 13 13 9 8 -5 7 -2 -2 9 -12 15 -12 17 3 11 9 -3 16 -1 16 6 0 6 5 8
12 4 7 -5 9 -2 5 9 -4 11 -1 15 13 12 11 -2 23 1 26 7 4 6 3 8 -3 5 -6 -4 -13
0 -16 8 -4 10 -1 12 10 8 11 -4 14 -2 9 5 -4 7 1 10 14 7 18 -3 19 -1 9 18 -7
12 -8 19 -4 15 4 -4 18 6 32 22 14 17 30 27 39 23 10 -4 12 0 7 13 -6 16 -5
17 9 6 14 -11 16 -10 14 12 -2 14 0 25 3 24 29 -6 101 57 93 81 -3 8 0 11 7 7
6 -4 11 -2 11 4 0 6 5 8 11 4 8 -4 9 1 4 17 -5 18 -4 20 4 9 8 -12 13 -12 30
4 12 11 21 24 21 29 0 20 32 46 48 39 15 -5 16 -4 2 13 -14 17 -13 18 4 12 13
-5 17 -3 13 7 -3 8 6 24 21 37 14 13 20 16 13 7 -10 -14 -10 -18 -1 -18 6 0
14 9 17 20 3 11 10 17 16 13 6 -4 8 0 4 10 -4 12 -1 15 14 12 17 -3 18 -1 7
18 -11 21 -10 21 7 7 17 -14 18 -13 12 2 -4 13 -1 16 14 13 17 -3 18 -1 8 18
-7 12 -8 19 -4 15 4 -4 18 6 32 22 14 17 30 27 39 23 10 -4 12 0 7 13 -6 17
-5 17 11 5 15 -13 17 -12 12 12 -2 15 -2 26 2 25 14 -3 58 20 72 37 12 14 12
18 -1 26 -10 8 -8 8 10 4 16 -5 21 -4 17 4 -4 6 -2 11 4 11 6 0 9 4 6 9 -3 5
2 15 12 22 15 13 16 12 3 -3 -10 -13 -10 -18 -1 -18 6 0 14 9 17 20 3 11 10
17 16 13 6 -4 8 0 4 10 -4 11 -1 15 13 12 11 -2 23 1 26 7 4 6 3 8 -3 5 -6 -4
-13 0 -16 8 -4 10 -1 12 10 8 11 -4 14 -2 9 5 -4 7 1 10 14 7 18 -3 19 -1 9
18 -7 12 -8 19 -4 15 4 -4 14 0 22 10 13 15 13 14 3 -7 -8 -14 -8 -21 -2 -17
17 10 42 66 30 66 -6 0 -9 3 -5 6 10 11 28 -7 20 -20 -4 -7 -1 -4 8 6 9 9 20
14 25 10 5 -4 2 2 -6 12 -14 18 -13 19 3 13 9 -3 17 -2 17 4 0 6 5 7 11 3 8
-5 8 -1 0 14 -10 18 -8 20 9 17 11 -2 20 1 20 6 0 6 4 7 10 4 5 -3 7 0 4 8 -3
8 0 18 5 22 6 3 8 11 5 17 -4 7 -2 8 5 4 9 -6 9 -12 -1 -24 -12 -15 -11 -16 5
-3 11 9 16 22 13 33 -3 15 -2 17 9 8 10 -9 15 -6 20 10 8 26 41 61 49 52 3 -3
6 0 6 6 0 7 -5 12 -11 12 -5 0 -7 5 -4 10 5 8 12 7 23 -2 10 -8 13 -9 9 -1 -4
6 -2 15 4 18 5 4 8 14 4 22 -5 14 -3 14 12 2 14 -12 16 -12 8 0 -6 11 -4 13
11 8 18 -7 18 -6 -1 9 -14 11 -15 15 -5 14 24 -4 44 0 38 5 -3 3 8 20 24 37
22 24 26 33 16 40 -9 7 -6 8 10 5 19 -5 21 -3 11 9 -10 12 -9 13 4 8 12 -4 15
-1 12 15 -2 11 1 24 7 27 6 4 8 2 4 -4 -3 -6 -2 -13 4 -17 5 -3 10 -1 10 5 0
6 5 8 11 4 8 -5 8 -1 0 14 -9 17 -8 19 8 15 10 -3 22 1 27 8 5 9 2 10 -11 5
-15 -5 -16 -4 -6 8 7 8 20 12 28 9 13 -5 15 -2 10 12 -7 16 -5 16 10 4 10 -7
15 -10 11 -5 -11 13 11 48 24 40 6 -4 8 -3 5 3 -4 6 0 14 9 17 12 5 14 9 5 20
-9 11 -6 13 14 11 22 -3 24 -1 14 17 -10 18 -9 19 13 7 21 -11 22 -11 9 4 -12
15 -11 17 8 17 18 0 21 4 16 23 -7 22 -7 22 9 2 13 -16 15 -17 10 -2 -4 12 -1
17 12 17 16 0 17 2 4 11 -12 9 -11 10 7 6 19 -4 21 -2 13 19 -6 15 -5 26 2 30
6 4 8 3 4 -4 -3 -6 -2 -13 4 -17 9 -6 15 8 11 29 -1 5 5 6 13 3 10 -4 13 1 11
19 -2 21 0 22 14 12 9 -7 13 -9 9 -4 -9 10 15 36 34 36 10 0 9 3 -2 10 -13 9
-7 14 12 11 4 0 4 7 1 16 -4 11 -3 14 5 9 7 -4 12 -1 12 9 0 10 -5 13 -12 9
-6 -4 -8 -3 -5 4 4 5 16 8 27 5 18 -5 25 5 21 29 0 5 4 7 11 5 7 -1 13 8 14
21 1 12 3 25 4 30 1 4 2 10 1 15 0 4 4 7 9 7 14 0 13 -13 -2 -28 -9 -9 -9 -12
1 -12 7 0 15 9 18 20 3 11 10 20 15 20 6 0 7 8 3 17 -5 14 -4 15 6 6 10 -10
17 -9 35 8 13 12 20 28 17 37 -4 9 -2 13 4 9 5 -3 10 0 10 8 0 8 -5 15 -10 15
-6 0 -7 3 -4 6 4 4 14 1 24 -7 11 -9 14 -10 9 -2 -4 7 -2 21 4 30 11 17 11 17
6 0 -4 -11 -2 -16 5 -11 6 3 8 15 6 26 -4 15 -3 17 8 8 10 -8 15 -8 21 1 4 8
3 9 -4 5 -7 -4 -12 -2 -12 3 0 6 9 11 20 11 11 0 20 4 20 10 0 5 -8 7 -17 3
-15 -5 -14 -3 2 10 23 19 39 22 29 5 -4 -7 -3 -8 4 -4 9 5 9 13 0 29 -10 19
-9 20 4 10 18 -15 32 -5 18 12 -8 9 -6 14 5 19 11 4 14 2 9 -7 -5 -8 -2 -7 9
2 18 15 23 26 7 16 -5 -3 -10 1 -10 10 0 9 4 14 9 11 4 -3 17 2 27 10 19 15
19 15 0 10 -15 -5 -17 -4 -8 7 7 8 8 18 4 23 -4 4 1 2 11 -5 16 -13 18 -12 13
12 -3 19 -1 24 10 20 8 -3 14 0 14 6 0 6 6 8 14 5 13 -5 33 29 28 48 -1 4 7
10 18 13 11 4 18 11 14 16 -3 5 -10 6 -16 3 -7 -4 -8 -2 -4 4 4 6 14 8 23 5
10 -4 14 -2 10 4 -4 6 0 14 9 17 9 3 12 11 8 18 -5 7 -2 9 8 5 13 -4 15 1 14
24 -2 32 8 47 20 28 5 -8 3 -9 -6 -4 -9 6 -11 4 -6 -4 6 -9 13 -8 27 5 10 9
17 19 15 23 -2 3 5 22 16 41 18 32 18 27 1 -17 -3 -10 4 -6 16 9 12 15 19 32
16 38 -4 6 -1 9 7 8 8 -2 13 6 12 18 0 12 4 20 10 18 10 -4 31 24 61 78 5 10
13 18 18 18 4 0 5 5 1 12 -5 7 -2 9 7 6 10 -4 15 1 16 14 2 17 0 18 -15 6 -15
-12 -16 -11 -3 5 11 14 16 15 29 5 13 -11 14 -11 8 0 -5 8 1 20 16 32 13 11
18 19 11 20 -6 0 -14 -6 -16 -12 -4 -10 -6 -10 -6 0 -1 7 6 15 14 18 8 4 15
12 15 19 0 8 5 17 12 21 7 5 8 3 3 -6 -5 -9 -4 -11 4 -6 6 4 9 12 5 17 -3 5 0
16 6 24 10 12 10 15 0 15 -8 0 -11 3 -7 6 3 3 11 3 17 -1 8 -5 8 -11 -1 -23
-12 -16 -11 -16 5 -1 9 9 18 25 19 36 0 13 6 19 14 16 8 -3 13 0 11 7 -2 7 5
14 15 15 11 2 22 7 25 11 4 4 -1 4 -10 1 -10 -4 -18 -2 -18 3 0 6 5 10 11 10
5 0 7 5 4 10 -3 6 -1 10 5 10 6 0 8 4 5 10 -3 5 0 7 9 4 11 -4 13 0 9 18 -3
17 -2 19 5 9 8 -11 11 -9 14 10 2 13 9 23 16 21 10 -2 11 4 7 19 -5 16 -4 19
6 14 9 -6 11 -3 6 9 -4 9 -3 15 2 12 11 -7 35 20 27 32 -3 4 8 16 25 26 16 9
27 22 23 27 -3 5 -11 6 -17 3 -7 -4 -8 -3 -4 2 5 5 15 9 24 9 8 0 23 11 31 25
11 18 12 21 2 13 -8 -7 -18 -13 -23 -13 -10 0 11 22 38 39 19 11 18 12 -5 6
-24 -6 -24 -5 -6 9 11 9 23 16 28 16 4 0 8 5 8 11 0 5 -5 7 -11 4 -6 -4 -5 2
2 14 10 14 15 17 21 8 5 -8 8 -5 8 8 0 11 5 27 11 35 8 12 9 9 4 -10 -5 -22
-4 -23 5 -7 7 10 9 25 6 33 -3 9 -1 12 4 9 19 -11 32 6 18 23 -7 10 -9 14 -4
10 5 -4 17 -3 28 3 19 10 19 11 1 32 -13 16 -14 18 -2 9 14 -11 18 -9 23 13 4
14 11 24 16 22 5 -1 18 15 29 36 13 25 14 34 5 26 -20 -16 -17 -6 4 19 14 15
22 18 30 10 8 -8 10 -5 7 8 -1 11 -8 18 -15 16 -6 -1 -9 2 -6 7 3 5 16 7 29 4
22 -5 22 -5 2 11 -16 13 -17 15 -2 10 10 -4 17 -1 17 6 0 6 5 8 13 4 7 -5 6 0
-3 11 -12 15 -12 17 -1 10 11 -6 13 -4 8 8 -3 9 1 18 10 21 10 4 13 14 10 27
-5 17 -3 18 11 7 9 -7 14 -9 10 -4 -4 5 -2 18 4 30 11 20 10 20 -8 6 -19 -14
-19 -14 0 7 10 13 22 21 26 18 10 -6 51 43 56 68 2 11 -1 26 -7 33 -8 9 -5 11
13 7 18 -4 20 -3 8 6 -13 9 -13 11 3 11 9 0 17 4 17 10 0 5 -8 6 -17 3 -17 -7
-17 -6 0 11 9 10 15 21 12 26 -3 5 -1 11 4 14 5 4 13 1 17 -5 4 -7 3 -9 -3 -6
-5 3 -10 0 -10 -8 0 -11 4 -12 13 -4 7 5 10 22 8 35 -3 16 -1 23 6 19 5 -3 10
-1 10 5 0 6 5 8 12 4 7 -5 8 -3 4 5 -5 7 0 18 10 27 18 14 18 14 1 8 -17 -6
-18 -5 -6 14 7 11 16 19 20 17 3 -3 5 7 3 20 -2 21 0 23 16 15 16 -8 18 -6 16
20 -1 16 2 26 8 23 5 -4 7 1 3 11 -5 11 -3 15 5 10 7 -5 9 -2 6 7 -3 8 0 23 8
33 7 11 11 23 7 29 -3 6 -1 7 6 3 9 -6 8 -13 -3 -31 -12 -19 -13 -26 -3 -31 6
-4 9 -4 5 1 -4 4 1 20 12 36 15 20 17 29 8 32 -10 4 -10 6 0 6 6 1 12 6 12 12
0 5 -5 7 -12 3 -7 -4 -8 -3 -4 5 6 9 11 9 24 -1 13 -12 14 -10 3 9 -10 19 -9
22 5 16 14 -5 15 -3 4 17 -8 15 -8 20 -1 16 10 -6 15 6 12 27 0 4 5 7 13 7 8
0 18 4 21 10 3 5 0 8 -7 7 -7 -2 -3 1 9 7 12 5 25 16 28 24 4 11 2 12 -8 6 -7
-5 -5 -2 5 8 21 19 23 29 6 24 -7 -1 -10 -1 -5 1 4 3 5 9 2 14 -4 5 1 6 9 3 9
-3 16 -1 16 5 0 6 -4 11 -10 11 -5 0 -2 8 8 18 9 11 21 17 26 14 5 -3 6 0 2 7
-4 6 -12 9 -17 6 -5 -4 -9 -1 -9 4 0 6 7 11 15 11 8 0 15 7 15 15 0 8 6 14 13
12 7 -1 11 6 9 17 -2 10 0 16 5 13 5 -3 9 3 9 13 0 10 -3 17 -7 14 -4 -2 -5 5
-2 17 4 16 8 17 14 7 6 -9 9 -6 9 10 0 13 4 20 10 17 6 -4 10 -3 9 2 -3 20 2
34 11 28 6 -3 10 -2 10 4 0 5 -6 12 -12 14 -8 4 -4 8 9 12 13 4 20 11 17 16
-3 5 -9 7 -14 4 -5 -3 -11 -1 -15 4 -3 6 3 8 15 6 12 -2 20 1 20 10 0 7 7 16
16 19 9 3 14 13 10 21 -3 8 -1 17 5 20 5 4 7 10 4 15 -3 4 2 13 11 20 8 7 13
19 10 26 -3 8 2 17 11 22 11 6 12 11 4 16 -6 4 -11 12 -11 17 0 6 5 7 10 4 6
-4 9 -1 8 7 -2 7 3 12 10 10 8 -1 11 2 7 7 -3 6 -13 8 -23 5 -16 -5 -16 -5 0
9 10 8 15 17 11 20 -3 4 2 7 12 7 13 0 15 3 6 13 -14 18 -2 30 16 16 7 -6 13
-8 14 -3 0 5 2 19 5 32 2 13 0 21 -4 18 -5 -3 -9 1 -9 8 0 8 7 12 15 9 12 -5
12 -2 3 15 -10 19 -9 20 11 17 22 -4 22 -4 4 10 -11 8 -14 15 -8 15 7 0 12 6
12 14 0 8 4 18 10 21 6 4 7 -1 4 -12 -5 -15 -4 -15 4 -3 8 10 8 18 0 27 -8 10
-7 12 6 7 18 -7 19 15 1 28 -6 5 -4 8 5 8 8 0 21 9 27 20 11 17 10 18 -5 13
-16 -6 -16 -5 1 14 11 12 15 27 11 38 -6 14 -4 16 7 10 11 -7 11 -5 -1 10 -8
10 -10 16 -4 12 7 -4 14 2 17 13 3 11 1 18 -4 14 -5 -3 -9 0 -9 5 0 6 6 11 14
11 8 0 18 5 22 12 4 6 3 8 -4 4 -6 -3 -14 -1 -18 5 -4 7 -3 9 4 5 6 -3 14 -1
18 5 4 8 9 7 16 -2 6 -10 7 -7 3 9 -4 15 -2 22 7 22 10 0 9 3 -2 10 -13 8 -13
10 2 10 14 0 16 4 8 25 -6 16 -6 27 2 31 6 4 8 3 4 -4 -3 -6 -2 -13 3 -16 6
-4 8 7 6 24 -2 18 0 28 5 25 6 -3 7 1 4 9 -4 10 -1 16 7 16 11 0 11 3 -1 10
-13 9 -13 11 0 21 11 8 12 12 3 16 -7 2 -13 9 -13 14 0 6 5 7 10 4 14 -9 12 8
-2 25 -7 8 -4 7 8 -3 17 -14 21 -15 21 -2 0 8 -4 15 -9 15 -5 0 -6 5 -3 10 4
6 11 8 16 5 5 -3 6 2 2 11 -5 13 -3 15 8 9 11 -6 12 -5 2 6 -15 15 -17 33 -4
25 5 -3 12 6 17 22 7 24 9 38 13 90 1 8 6 10 14 6 9 -6 9 -4 -1 8 -10 13 -10
18 -1 24 8 4 9 3 5 -4 -4 -7 -3 -12 2 -12 15 0 22 28 9 34 -7 2 -4 5 5 5 12 1
15 6 11 18 -5 12 -3 14 8 8 12 -8 12 -6 0 8 -8 10 -11 27 -7 43 5 18 3 24 -5
18 -8 -5 -9 -3 -5 5 5 7 14 10 21 7 9 -3 12 2 10 14 -2 11 1 22 6 26 5 3 7 15
3 26 -4 15 -3 18 6 13 9 -6 9 -3 1 14 -7 12 -8 21 -4 20 20 -3 23 2 9 17 -16
16 -12 39 5 29 13 -9 11 9 -3 24 -11 11 -9 11 12 2 l25 -12 -25 22 c-16 14
-19 20 -8 16 10 -3 20 -2 23 3 4 6 1 10 -6 10 -8 0 -7 5 2 17 8 9 9 14 3 10
-6 -3 -11 0 -11 7 0 8 7 12 15 8 10 -3 13 -1 8 7 -4 6 -2 19 6 28 9 12 9 15 1
9 -16 -9 -17 6 -2 21 14 14 18 45 8 65 -6 11 -5 19 3 24 7 4 8 3 4 -4 -4 -7
-3 -12 3 -12 5 0 9 9 8 20 -1 23 -7 25 -27 8 -8 -7 -6 -2 5 11 11 13 21 32 21
42 1 10 2 20 4 22 1 1 3 12 4 24 2 14 -2 20 -8 16 -6 -4 -5 1 3 10 7 9 17 14
22 11 5 -3 9 0 9 5 0 6 -6 11 -12 12 -7 0 -4 4 7 9 12 5 14 9 6 9 -11 1 -10 4
4 14 14 11 15 16 5 22 -10 6 -9 9 1 16 10 6 11 9 2 9 -7 0 -13 5 -13 11 0 5 4
8 9 4 6 -3 8 4 5 15 -2 11 -6 29 -8 40 -3 11 -2 19 2 16 4 -2 7 21 5 52 -1 31
-2 65 -2 75 -1 10 -5 16 -10 13 -5 -3 -12 1 -15 10 -3 8 -2 12 4 9 6 -3 10 1
10 9 0 9 -4 15 -9 13 -5 -1 -9 3 -9 8 0 6 4 9 9 8 8 -3 13 11 7 20 -1 1 4 11
10 23 8 16 8 24 -1 33 -9 10 -8 11 8 6 12 -4 15 -3 9 2 -14 10 -30 58 -17 50
5 -3 9 5 9 19 0 15 -6 24 -15 25 -12 0 -11 2 3 8 11 4 21 18 23 32 2 19 1 21
-7 9 -7 -11 -10 -11 -10 -2 0 7 6 15 13 18 19 7 16 85 -3 102 -13 10 -12 11 4
6 16 -6 17 -4 7 13 -8 17 -7 22 5 27 11 4 13 10 7 19 -5 6 -9 37 -9 67 1 40
-3 57 -14 62 -12 5 -12 7 3 7 14 1 16 5 8 20 -8 14 -7 20 4 25 17 6 20 26 4
26 -5 0 -8 -4 -5 -8 3 -5 -1 -9 -9 -9 -11 0 -12 3 -3 14 15 18 18 65 3 53 -7
-6 -11 -2 -11 11 0 11 5 18 11 15 17 -6 13 117 -5 132 -13 10 -12 11 5 5 20
-6 20 -6 1 16 -20 22 -20 22 0 15 17 -7 18 -6 4 11 -8 10 -10 16 -4 12 8 -4
11 3 10 23 0 19 -6 30 -16 31 -10 0 -9 3 5 9 11 5 14 9 8 9 -7 1 -13 6 -13 12
0 5 5 7 12 3 7 -4 8 -3 4 5 -4 6 -12 8 -18 5 -7 -5 -9 -1 -5 9 4 12 2 14 -11
10 -15 -6 -16 -5 -2 12 14 17 13 17 -10 10 -23 -7 -23 -7 -6 11 18 17 18 18 0
25 -18 6 -18 6 0 10 19 4 19 5 2 22 -17 16 -17 17 0 17 17 0 17 1 -1 13 -14
11 -15 16 -5 22 9 5 11 4 6 -3 -4 -7 -2 -12 3 -12 16 0 13 20 -3 26 -8 3 -17
13 -20 21 -6 14 -4 14 10 2 16 -13 16 -12 5 9 -7 12 -16 20 -20 18 -4 -3 -8 1
-8 8 0 7 6 13 13 13 7 0 10 -5 7 -10 -3 -6 -1 -7 5 -4 14 9 9 36 -9 48 -11 7
-11 9 0 9 9 0 11 7 8 21 -4 15 -2 18 7 10 9 -8 12 -3 10 19 -1 16 -5 33 -9 39
-3 6 0 11 7 11 9 1 7 5 -4 14 -20 15 -24 31 -5 20 10 -6 10 -4 0 7 -7 7 -13
24 -13 37 0 15 -4 21 -12 17 -7 -4 -4 1 6 9 20 16 20 16 0 17 -15 0 -16 2 -4
7 18 8 26 42 10 42 -6 0 -8 -4 -5 -10 3 -5 1 -10 -4 -10 -15 0 -14 13 2 29 10
11 10 13 0 7 -8 -5 -13 -1 -13 9 0 9 -4 13 -10 10 -5 -3 -10 1 -10 9 0 9 -4
16 -10 16 -5 0 -10 5 -10 11 0 6 7 8 16 5 10 -4 13 -2 8 6 -14 22 -11 76 3 71
12 -5 18 9 14 31 -1 4 4 15 11 24 11 13 10 15 -4 9 -10 -3 -20 -2 -23 4 -4 5
-1 8 7 7 17 -4 14 52 -4 64 -10 6 -10 8 2 8 10 0 11 3 4 8 -6 4 -10 17 -9 29
1 15 -3 20 -14 15 -9 -3 -13 -2 -9 3 4 4 2 15 -5 23 -8 10 -8 13 -1 9 7 -4 15
0 18 9 9 23 7 31 -4 14 -7 -11 -9 -6 -9 20 0 53 -4 70 -13 64 -4 -3 -9 4 -9
15 -3 39 -4 43 -24 58 -16 12 -16 14 -3 10 10 -3 20 -1 24 6 4 7 4 9 -1 5 -8
-8 -34 20 -35 37 0 6 5 3 10 -5 6 -9 10 -10 10 -3 0 6 -5 15 -10 18 -6 4 -8
16 -5 28 5 18 4 19 -5 7 -10 -12 -11 -11 -7 8 4 18 2 22 -10 18 -14 -6 -14 -4
-2 11 12 15 12 16 -3 11 -12 -5 -16 -1 -13 18 1 13 -2 27 -8 31 -6 4 -7 1 -2
-8 5 -8 4 -10 0 -6 -11 9 -16 39 -6 33 4 -3 8 4 8 15 1 10 -3 19 -8 19 -6 0
-7 -4 -4 -10 3 -6 -1 -7 -10 -3 -13 5 -14 7 -3 14 11 7 10 11 -2 19 -13 9 -13
10 0 10 11 0 12 2 3 8 -7 4 -15 24 -17 43 -3 18 -6 35 -7 37 -1 1 -3 7 -4 12
-1 6 -4 13 -5 18 -1 4 -2 11 -1 16 1 5 -5 3 -14 -4 -8 -7 -18 -10 -22 -6 -3 3
-2 6 4 6 23 0 20 27 -5 51 -14 13 -23 19 -19 12 4 -6 3 -14 -2 -17 -5 -4 -8 5
-6 19 1 14 -1 25 -4 25 -6 0 -10 17 -13 58 -1 6 -5 12 -9 12 -4 0 -6 9 -4 19
2 11 -3 25 -11 32 -8 7 -20 22 -25 33 -8 16 -6 15 10 -4 11 -14 23 -21 27 -17
4 4 2 7 -5 7 -7 0 -10 3 -7 8 9 14 -23 45 -40 38 -14 -5 -15 -4 -4 9 10 12 10
15 0 15 -9 0 -9 4 1 17 10 11 10 14 2 9 -8 -4 -13 -2 -13 4 0 6 -5 8 -12 4 -8
-5 -7 0 2 11 9 11 10 16 3 11 -9 -5 -13 0 -13 14 0 12 -4 18 -10 15 -5 -3 -10
-1 -10 5 0 6 -4 9 -8 6 -4 -2 -8 4 -8 15 0 19 1 19 13 3 7 -10 13 -13 13 -6 0
6 -8 17 -17 24 -10 7 -18 20 -18 28 0 9 -8 14 -20 13 -20 -1 -20 -1 -1 13 17
12 18 14 3 14 -9 0 -17 5 -17 11 0 5 -5 7 -12 3 -7 -4 -8 -3 -4 4 4 6 14 8 24
5 14 -5 14 -3 -2 9 -12 9 -16 20 -11 28 5 9 4 11 -3 6 -7 -4 -12 -2 -12 4 0 6
-5 8 -12 4 -8 -5 -7 0 2 11 9 11 10 16 3 11 -9 -5 -13 -1 -13 13 0 10 -4 21
-10 23 -5 2 -11 15 -12 30 -2 21 -6 25 -18 18 -12 -6 -16 -3 -17 13 -2 17 0
19 7 7 13 -21 12 -6 -1 24 -7 14 -17 23 -22 19 -6 -4 -8 0 -5 9 5 11 0 14 -19
12 -24 -2 -24 -2 -7 17 16 18 16 19 -1 19 -12 0 -16 6 -13 18 3 11 -1 30 -8
43 -7 13 -13 20 -14 16 0 -5 5 -17 10 -27 7 -13 7 -21 -2 -26 -6 -4 -8 -3 -4
4 3 6 0 17 -8 24 -7 8 -12 27 -11 42 3 22 1 25 -11 15 -16 -13 -19 2 -4 17 8
8 5 15 -7 25 -17 13 -17 13 -3 -6 14 -18 13 -19 -1 -8 -9 7 -20 9 -24 5 -5 -4
-5 -2 -1 5 4 7 -1 25 -10 40 l-16 28 21 -25 c17 -18 20 -20 12 -5 -5 11 -19
28 -30 37 -12 10 -21 25 -21 33 0 9 -4 13 -10 10 -5 -3 -10 -2 -10 4 0 6 -8 8
-17 4 -15 -5 -14 -3 2 10 12 10 15 16 7 17 -7 0 -11 4 -8 8 3 5 -6 16 -20 27
-19 14 -22 21 -13 32 10 11 8 12 -6 7 -12 -5 -16 -4 -12 3 4 6 0 16 -8 23 -8
7 -13 15 -10 19 2 4 -7 19 -21 34 -13 14 -24 31 -24 37 0 5 -5 10 -11 10 -5 0
-7 5 -4 10 3 6 -4 10 -17 10 -18 0 -20 2 -8 10 12 8 12 10 -5 10 -17 0 -17 2
-5 10 13 8 13 10 -1 10 -9 0 -20 7 -23 16 -5 12 -3 14 7 8 7 -5 4 -1 -6 9 -11
9 -15 17 -11 17 5 0 1 5 -8 11 -10 5 -18 15 -18 20 0 6 5 7 12 3 7 -4 8 -3 4
5 -6 9 -11 9 -24 -1 -12 -10 -14 -10 -8 0 4 6 2 12 -3 12 -6 0 -11 5 -11 11 0
5 5 7 12 3 6 -4 8 -3 4 4 -3 6 -19 9 -34 6 l-27 -4 25 15 c23 15 23 15 3 10
-17 -5 -22 -3 -17 8 3 8 0 18 -5 22 -6 3 -9 11 -6 16 4 5 -1 9 -10 9 -10 0
-13 5 -9 12 5 7 2 9 -7 6 -8 -3 -23 0 -34 8 -10 8 -14 14 -9 14 6 0 11 7 11
15 0 8 -4 12 -9 9 -4 -3 -8 5 -8 17 0 17 -3 19 -14 10 -12 -10 -13 -8 -9 10 5
17 3 21 -9 16 -10 -3 -24 3 -35 15 -10 12 -12 18 -5 14 6 -4 12 -2 12 3 0 6
-5 11 -11 11 -5 0 -7 5 -4 10 3 6 -1 10 -9 10 -9 0 -16 5 -16 11 0 5 -5 7 -12
3 -7 -4 -8 -3 -4 5 5 7 13 9 20 4 11 -7 -8 10 -40 36 -7 6 -16 7 -20 3 -5 -4
-2 2 6 12 13 17 13 18 1 11 -11 -6 -13 -4 -8 8 4 12 2 14 -11 10 -14 -6 -15
-4 -4 9 10 13 8 18 -12 32 -14 9 -33 16 -42 16 -14 0 -15 2 -3 18 7 9 9 14 5
10 -5 -4 -15 0 -23 10 -8 9 -12 12 -9 5 4 -6 2 -14 -3 -17 -5 -4 -8 6 -6 20 2
19 -3 28 -17 31 -13 4 -17 12 -13 27 2 11 2 15 -1 8 -9 -18 -24 -4 -17 16 6
15 5 16 -12 2 -11 -9 -16 -10 -11 -2 4 7 1 12 -8 12 -9 0 -15 3 -15 8 4 23 -3
34 -19 30 -12 -3 -18 1 -20 13 -4 43 -6 46 -24 41 -14 -3 -17 -1 -11 14 6 17
5 18 -12 4 -15 -12 -17 -12 -10 -1 6 10 4 13 -6 9 -10 -4 -15 1 -16 13 -1 11
-9 26 -17 35 -9 8 -16 20 -16 25 0 5 -7 9 -15 9 -8 0 -15 4 -15 10 0 19 -44
50 -64 45 -12 -3 -15 -2 -8 1 17 8 15 24 -4 24 -8 0 -13 4 -10 9 3 5 -1 12
-10 15 -8 3 -12 10 -9 16 3 6 -1 7 -9 4 -9 -3 -16 -1 -16 5 0 6 -7 11 -15 11
-8 0 -15 5 -15 11 0 7 -9 9 -21 6 -16 -4 -19 -3 -11 5 13 13 -8 38 -31 38 -23
0 -39 24 -25 38 9 9 6 11 -9 8 -16 -4 -22 2 -27 25 -4 20 -10 27 -21 23 -8 -3
-15 -1 -15 6 0 7 -8 9 -22 5 -18 -5 -20 -4 -8 4 11 8 12 11 2 11 -8 0 -10 5
-6 13 5 8 2 8 -9 -2 -12 -9 -17 -10 -17 -2 0 7 -5 9 -10 6 -6 -4 -10 -3 -9 2
1 4 1 17 0 28 -1 17 -3 18 -12 5 -9 -12 -10 -10 -6 8 3 13 3 21 0 18 -4 -3
-13 0 -22 7 -14 11 -14 10 -2 -6 12 -15 12 -17 -2 -11 -9 3 -17 15 -19 27 -2
14 -9 21 -20 19 -9 -1 -20 3 -24 9 -5 8 -3 10 7 4 11 -6 12 -5 2 5 -10 11 -15
11 -30 0 -15 -12 -16 -12 -5 0 6 8 12 18 12 22 0 12 -34 9 -50 -4 -8 -7 -6 -2
5 11 17 20 17 23 3 18 -11 -4 -18 1 -21 14 -4 13 -10 17 -23 12 -13 -5 -16 -3
-11 10 4 11 -3 21 -25 31 -21 11 -27 12 -19 2 8 -9 7 -13 -2 -13 -7 0 -14 9
-14 20 -1 10 -10 25 -20 33 -23 17 -47 18 -37 2 5 -9 2 -9 -9 1 -9 7 -17 19
-17 25 0 6 5 4 10 -4 6 -9 10 -10 10 -3 0 14 -18 26 -43 30 -12 2 -16 -1 -11
-9 4 -7 3 -8 -5 -4 -9 6 -9 11 1 24 11 13 10 14 -8 4 -18 -9 -24 -9 -34 3 -11
13 -10 15 6 10 10 -3 4 2 -14 10 -25 12 -32 20 -27 33 3 9 3 13 -1 9 -4 -4
-14 -1 -23 6 -14 11 -15 10 -1 -7 14 -18 14 -18 -7 -6 -12 8 -20 17 -18 20 7
11 -42 33 -56 25 -8 -5 -10 -4 -5 4 4 6 0 19 -9 28 -15 14 -16 14 -13 0 2 -9
-1 -16 -7 -16 -5 0 -8 8 -7 17 3 13 1 14 -11 3 -12 -9 -17 -9 -23 0 -4 8 -3 9
4 5 8 -5 10 -2 6 8 -5 12 -10 13 -26 5 -15 -8 -19 -8 -14 0 4 6 2 11 -4 11 -6
0 -8 5 -5 10 3 6 -3 10 -15 10 -12 0 -19 3 -17 8 3 4 -2 14 -11 22 -14 13 -15
12 -9 -5 7 -20 7 -20 -8 -1 -8 11 -15 24 -15 28 0 5 -9 4 -20 -2 -17 -9 -22
-7 -30 12 -5 13 -9 17 -10 8 0 -13 -2 -13 -9 0 -6 8 -8 17 -5 21 2 5 -5 6 -16
4 -12 -2 -26 5 -35 18 -16 22 -16 22 -11 -6 3 -16 1 -25 -5 -22 -5 4 -7 10 -5
13 2 4 -2 18 -11 32 -8 14 -12 17 -9 8 3 -10 0 -20 -7 -24 -7 -4 -9 -4 -5 1
10 11 -11 47 -23 40 -5 -4 -9 2 -9 12 0 15 -2 16 -11 3 -7 -11 -12 -12 -15 -3
-3 7 -12 9 -20 6 -10 -4 -12 0 -7 13 6 17 5 18 -12 4 -11 -9 -16 -10 -11 -2 4
6 2 12 -3 12 -20 0 -26 3 -37 18 -10 13 -12 13 -21 -2 -9 -17 -11 -17 -16 -1
-5 12 -13 14 -29 10 -23 -7 -23 -7 -3 9 19 15 19 16 1 9 -11 -4 -17 -2 -13 3
3 6 -3 11 -14 11 -12 1 -17 -3 -13 -9 5 -7 2 -8 -5 -4 -7 5 -10 14 -7 22 6 17
-6 18 -21 3 -8 -8 -13 -7 -18 2 -5 8 -4 10 3 5 8 -5 10 -2 6 8 -3 9 -11 13
-17 9 -5 -3 -16 2 -24 12 -13 18 -13 18 -13 -1 0 -15 -2 -16 -9 -4 -6 8 -7 18
-5 22 3 4 -3 5 -12 1 -13 -5 -15 -3 -9 7 6 10 4 11 -6 4 -21 -13 -40 -14 -32
-1 4 6 0 8 -10 4 -12 -4 -14 -2 -10 10 5 12 3 14 -8 7 -20 -12 -40 -14 -33 -3
3 5 10 6 16 3 6 -4 8 -2 4 4 -3 6 -15 9 -26 7 -11 -2 -20 1 -20 8 0 8 -3 8
-11 0 -9 -9 -18 -8 -35 4 -13 8 -29 11 -36 7 -11 -6 -11 -5 0 8 10 13 9 16 -8
21 -11 3 -18 1 -14 -4 3 -5 0 -9 -5 -9 -6 0 -11 7 -11 15 0 8 -5 15 -11 15 -5
0 -7 -6 -4 -12 4 -7 -1 -4 -9 6 -9 11 -16 15 -16 10 0 -6 -7 -11 -15 -11 -11
0 -12 4 -4 13 8 9 5 11 -12 7 -17 -5 -20 -3 -14 8 7 11 6 12 -6 3 -16 -13 -51
-15 -43 -3 2 5 12 5 21 2 15 -6 16 -5 3 9 -8 9 -17 14 -19 13 -1 -2 -14 0 -27
5 -18 7 -26 5 -34 -8 -11 -16 -11 -16 -6 1 3 11 0 20 -9 22 -8 3 -23 8 -32 12
-10 3 -21 7 -25 7 -3 1 -9 4 -13 8 -8 8 -37 -1 -48 -16 -5 -6 -5 -1 -2 12 5
16 2 22 -10 22 -9 0 -14 -4 -10 -9 3 -5 1 -13 -5 -16 -6 -4 -10 -3 -9 2 6 34
-31 43 -53 12 -8 -12 -9 -12 -5 1 2 8 -3 20 -12 27 -24 18 -35 16 -20 -4 9
-12 5 -11 -11 3 -32 27 -55 40 -47 27 4 -6 0 -14 -9 -17 -8 -3 -13 -2 -10 3 3
5 -1 12 -10 15 -8 3 -13 2 -10 -3 4 -5 -3 -7 -15 -4 -16 4 -17 8 -7 14 10 7 9
9 -4 9 -10 0 -18 -8 -19 -17 0 -11 -3 -13 -6 -5 -2 6 -10 9 -16 5 -7 -4 -5 2
3 12 9 11 10 16 3 11 -7 -4 -18 -4 -25 0 -7 4 -26 9 -43 10 -24 2 -26 1 -10
-6 19 -8 19 -9 1 -9 -10 -1 -25 7 -33 17 -8 9 -12 11 -8 5 3 -7 1 -13 -4 -13
-6 0 -11 8 -11 18 0 14 -2 15 -10 2 -6 -10 -10 -11 -10 -2 0 6 -5 12 -11 12
-5 0 -7 -4 -4 -10 3 -5 1 -10 -4 -10 -6 0 -11 5 -11 11 0 5 -5 7 -10 4 -6 -4
-7 -11 -4 -17 4 -7 2 -8 -4 -4 -7 4 -12 14 -12 22 0 14 -25 15 -48 0 -8 -5
-11 -3 -10 6 2 8 -9 13 -34 14 -21 1 -35 -3 -32 -7 3 -5 0 -9 -5 -9 -6 0 -11
4 -11 9 0 5 -13 8 -29 7 -22 -2 -28 2 -24 14 3 10 0 9 -11 -4 -15 -19 -21 -13
-17 19 1 6 -6 1 -14 -9 -14 -18 -20 -15 -15 9 1 5 -9 1 -21 -10 -12 -11 -20
-15 -16 -9 4 7 -6 11 -28 11 -19 0 -32 -4 -29 -8 2 -5 -8 -2 -23 6 -24 13 -30
13 -50 0 -14 -10 -24 -11 -28 -5 -4 6 -1 9 6 8 6 -2 13 2 16 8 2 6 -10 11 -29
12 -23 1 -28 -2 -18 -8 11 -7 10 -9 -7 -7 -12 0 -19 5 -17 9 3 4 -4 8 -16 8
-12 0 -19 -4 -16 -8 2 -4 -4 -9 -15 -9 -10 -1 -19 3 -19 8 0 6 5 7 12 3 7 -5
8 -3 3 6 -6 10 -11 9 -22 -5 -9 -13 -13 -15 -13 -5 0 11 -3 11 -12 2 -17 -17
-33 -15 -18 3 16 20 6 19 -14 -1 -10 -10 -16 -11 -16 -3 0 8 -5 8 -17 -2 -9
-8 -14 -9 -10 -2 5 8 -4 11 -30 9 -21 -2 -46 1 -55 6 -10 5 -19 4 -24 -4 -4
-6 -3 -8 4 -5 6 5 8 -1 4 -15 -5 -19 -7 -20 -10 -5 -2 9 -8 14 -14 10 -8 -4
-9 0 -5 13 7 18 7 18 -8 0 -10 -14 -15 -15 -15 -6 0 11 -3 11 -12 2 -17 -17
-33 -15 -18 3 16 20 6 19 -14 -1 -10 -10 -16 -11 -16 -3 0 8 -5 8 -17 -2 -14
-12 -16 -12 -9 0 6 9 5 12 -5 9 -8 -3 -24 -1 -36 3 -14 5 -25 4 -29 -3 -4 -7
-3 -8 4 -4 8 5 10 1 5 -10 -4 -11 -8 -13 -11 -6 -2 7 -9 9 -15 5 -7 -4 -8 0
-3 12 6 15 4 16 -10 4 -9 -7 -25 -14 -36 -16 -17 -3 -19 -1 -8 12 16 20 6 19
-14 -1 -10 -10 -16 -11 -16 -3 0 8 -5 8 -17 -2 -11 -10 -14 -10 -9 -1 4 7 1
12 -9 12 -9 0 -13 -4 -10 -10 3 -5 1 -10 -4 -10 -6 0 -11 4 -11 9 0 18 -33 4
-47 -20 -8 -13 -12 -16 -9 -6 6 20 -4 22 -23 5 -11 -10 -13 -10 -7 0 4 6 3 12
-3 12 -5 0 -12 -6 -14 -12 -4 -10 -6 -10 -6 0 -1 6 -6 12 -12 12 -5 0 -7 -4
-4 -10 3 -5 2 -10 -4 -10 -5 0 -11 6 -14 13 -3 9 -7 9 -20 -2 -9 -7 -14 -18
-10 -24 3 -6 1 -7 -5 -3 -6 4 -21 2 -32 -4 -16 -9 -22 -8 -26 5 -7 18 -30 20
-37 3 -4 -10 -6 -10 -6 0 -1 6 -6 12 -12 12 -5 0 -7 -6 -3 -12 6 -10 4 -10 -8
0 -12 9 -18 10 -23 2 -4 -6 -14 -9 -22 -6 -11 5 -13 0 -8 -17 5 -19 4 -20 -5
-4 -6 9 -16 17 -21 17 -6 0 -8 -4 -4 -9 3 -5 0 -13 -6 -17 -7 -4 -9 -3 -5 4 3
6 2 13 -4 17 -5 3 -10 0 -10 -7 0 -9 -3 -9 -10 2 -8 12 -10 10 -11 -10 0 -22
-1 -23 -8 -5 -8 19 -8 19 -19 0 -6 -11 -12 -15 -12 -8 0 6 -8 10 -17 8 -10 -2
-21 -4 -25 -4 -4 -1 -4 -9 -1 -18 7 -17 6 -17 -11 0 -21 21 -30 22 -23 2 4 -8
1 -17 -5 -21 -7 -4 -8 -3 -4 4 4 7 2 12 -4 12 -6 0 -8 6 -5 13 4 6 0 4 -9 -7
-8 -10 -19 -15 -25 -11 -6 3 -11 2 -11 -4 0 -6 -6 -8 -14 -5 -8 3 -21 -4 -29
-16 -9 -13 -17 -17 -22 -11 -3 6 -1 11 4 11 6 0 11 6 11 13 -1 6 -10 1 -20
-12 -18 -21 -20 -21 -21 -5 0 11 -3 14 -6 6 -2 -6 -10 -9 -16 -5 -7 4 -6 -1 2
-10 13 -16 12 -17 -13 -8 -17 7 -26 7 -26 1 0 -6 5 -10 12 -10 6 0 9 -2 6 -5
-8 -9 -38 6 -32 16 9 15 -3 10 -17 -8 -12 -14 -12 -16 0 -8 9 5 12 4 7 -3 -6
-10 -36 -9 -55 3 -6 3 -14 -2 -19 -11 -5 -10 -22 -18 -38 -20 -47 -3 -63 -9
-83 -30 -35 -34 -51 -45 -51 -35 0 6 9 15 20 21 11 6 20 15 20 21 0 11 -14 0
-62 -46 -17 -16 -27 -25 -24 -18 3 6 2 14 -4 18 -5 3 -10 1 -10 -6 0 -8 -5 -7
-17 2 -9 8 -14 9 -10 3 4 -7 -1 -18 -10 -25 -14 -12 -16 -12 -8 0 6 11 4 13
-11 7 -10 -4 -25 -9 -33 -10 -8 -2 -20 -11 -27 -21 -10 -14 -14 -15 -14 -4 0
12 -2 12 -9 -1 -6 -8 -7 -18 -4 -24 3 -5 1 -6 -6 -2 -6 4 -9 12 -6 17 7 11
-22 1 -51 -18 -11 -7 -24 -10 -28 -6 -4 4 -4 0 0 -10 4 -12 1 -17 -11 -17 -10
0 -14 5 -9 13 4 6 -2 4 -13 -5 -11 -10 -23 -18 -27 -18 -4 0 -14 -7 -22 -15
-18 -18 -4 -20 16 -2 12 10 12 9 0 -6 -8 -11 -21 -16 -32 -14 -11 3 -18 0 -18
-8 0 -8 -4 -17 -10 -20 -6 -4 -7 1 -3 12 6 17 5 17 -14 1 -21 -19 -48 -25 -38
-8 3 6 4 10 0 10 -3 0 -10 -12 -15 -26 -9 -22 -13 -24 -25 -14 -12 10 -16 9
-21 -4 -3 -9 -10 -13 -15 -10 -5 3 -9 1 -9 -3 0 -5 -6 -17 -13 -27 -12 -16
-14 -16 -14 -2 0 9 4 16 9 16 4 0 8 5 8 11 0 6 -13 1 -29 -10 -15 -11 -32 -17
-36 -13 -5 4 -5 1 -1 -6 6 -11 11 -11 24 0 15 12 16 11 4 -4 -8 -10 -20 -14
-29 -11 -12 5 -14 3 -8 -7 6 -10 3 -12 -14 -7 -19 5 -21 3 -9 -11 7 -9 8 -14
4 -10 -5 4 -16 2 -24 -5 -13 -10 -15 -9 -8 3 4 9 2 8 -7 -2 -8 -10 -17 -15
-20 -11 -4 3 -7 1 -7 -5 0 -7 -7 -12 -15 -12 -8 0 -15 -5 -15 -11 0 -7 -9 -9
-21 -6 -17 5 -18 3 -7 -11 7 -9 8 -14 4 -10 -5 4 -15 0 -23 -10 -8 -9 -12 -11
-8 -4 3 6 1 12 -4 12 -6 0 -11 -4 -11 -10 0 -5 -7 -10 -16 -10 -8 0 -12 -4 -9
-10 3 -5 -1 -10 -10 -10 -10 0 -13 5 -9 13 4 6 -3 3 -17 -8 -32 -26 -40 -38
-35 -51 2 -6 -2 -11 -10 -11 -7 0 -10 5 -7 11 4 6 -1 5 -11 -3 -9 -8 -15 -19
-12 -26 2 -6 -2 -12 -10 -12 -7 0 -11 4 -8 9 3 4 0 8 -5 8 -6 0 -11 -4 -11 -9
0 -5 -9 -13 -21 -16 -14 -5 -17 -10 -10 -19 7 -8 5 -12 -9 -12 -10 0 -16 5
-13 11 4 5 -3 1 -15 -9 -12 -11 -21 -25 -20 -32 2 -7 -1 -13 -7 -13 -5 -1 -10
3 -10 8 0 5 -4 13 -8 18 -5 4 -8 3 -7 -2 5 -23 -1 -34 -15 -29 -10 4 -13 0
-10 -15 2 -11 -1 -24 -7 -27 -6 -4 -8 -2 -4 4 3 6 2 13 -4 17 -5 3 -10 -1 -10
-10 0 -12 -5 -15 -16 -11 -15 6 -15 4 -3 -11 9 -11 10 -14 2 -9 -8 4 -13 2
-13 -5 0 -9 -3 -9 -14 0 -11 9 -17 8 -28 -8 -8 -11 -26 -25 -41 -30 -19 -7
-25 -16 -22 -31 3 -18 1 -19 -17 -9 -15 8 -19 8 -14 0 4 -6 1 -11 -6 -11 -9 0
-9 -3 2 -10 13 -8 12 -10 -3 -10 -10 0 -16 -4 -12 -9 3 -5 0 -13 -6 -17 -8 -4
-9 -3 -5 4 14 23 -21 12 -45 -15 -13 -14 -18 -23 -10 -18 10 6 12 4 7 -4 -6
-9 -11 -9 -22 0 -12 10 -13 8 -8 -7 4 -10 4 -16 -1 -12 -4 4 -16 -2 -26 -14
-11 -11 -19 -16 -19 -9 0 7 -5 9 -10 6 -6 -4 -8 -11 -4 -16 3 -5 -8 -14 -25
-20 -24 -8 -31 -17 -32 -37 0 -15 -3 -21 -6 -14 -2 6 -9 12 -14 12 -6 0 -7 -5
-3 -12 5 -8 2 -9 -9 -5 -9 3 -16 3 -16 -1 3 -20 -2 -33 -11 -27 -5 3 -10 2
-10 -4 0 -5 5 -11 12 -13 7 -3 5 -7 -6 -11 -10 -4 -15 -3 -11 3 3 6 1 10 -4
10 -6 0 -11 -4 -11 -10 0 -5 -7 -10 -15 -10 -8 0 -15 -4 -15 -10 0 -5 5 -10
12 -10 6 0 8 -3 5 -6 -4 -4 -14 -1 -24 7 -11 9 -14 10 -9 2 4 -7 3 -13 -3 -13
-6 0 -8 -8 -4 -17 5 -16 4 -16 -8 -3 -8 8 -13 13 -12 11 2 -2 -5 -10 -15 -18
-9 -8 -11 -12 -4 -8 6 3 12 1 12 -6 0 -7 -8 -9 -21 -6 -17 4 -18 3 -8 -9 10
-12 9 -13 -4 -9 -8 4 -18 1 -23 -6 -4 -7 -3 -10 4 -5 6 3 14 2 17 -4 4 -6 3
-10 -2 -9 -32 5 -44 -2 -38 -23 3 -13 3 -18 -2 -13 -4 6 -14 11 -21 13 -10 2
-10 -2 -1 -20 11 -20 10 -21 -3 -11 -17 14 -29 8 -22 -12 3 -8 -2 -12 -13 -12
-11 1 -18 -4 -17 -15 1 -11 -4 -15 -15 -10 -14 5 -14 3 -3 -10 11 -14 10 -16
-10 -11 -18 4 -20 3 -8 -6 13 -9 12 -11 -6 -11 -11 0 -31 -12 -45 -27 -13 -14
-19 -23 -12 -19 6 3 15 2 18 -4 4 -6 3 -10 -2 -9 -22 4 -43 -2 -38 -11 3 -5 0
-10 -8 -10 -19 0 -59 -44 -55 -61 2 -8 -4 -13 -14 -11 -9 1 -20 -3 -24 -9 -4
-7 -3 -9 4 -5 6 3 14 2 17 -4 4 -6 3 -10 -2 -9 -26 5 -45 -2 -40 -15 8 -20 -4
-28 -21 -13 -13 11 -14 9 -2 -13 12 -22 11 -24 -2 -13 -17 14 -29 8 -22 -12 3
-8 -2 -12 -13 -12 -11 1 -18 -4 -17 -15 1 -11 -4 -15 -15 -10 -14 5 -14 3 -3
-10 11 -14 10 -16 -10 -11 -18 4 -20 3 -8 -6 13 -9 12 -11 -6 -11 -30 0 -57
-32 -41 -49 10 -11 8 -11 -13 -1 -22 12 -23 11 -13 -2 13 -15 8 -28 -11 -28
-6 0 -4 5 4 10 8 5 10 10 4 10 -18 0 -24 -13 -12 -27 8 -11 7 -12 -6 -7 -12 5
-15 2 -9 -12 4 -12 3 -15 -5 -10 -7 4 -13 2 -13 -3 -1 -6 -2 -15 -3 -20 0 -5
-5 -13 -10 -18 -5 -5 -6 -3 -2 5 11 18 -9 15 -25 -5 -9 -11 -10 -14 -2 -9 9 5
11 2 7 -8 -3 -8 -12 -12 -20 -9 -10 4 -12 0 -8 -11 5 -12 2 -15 -12 -9 -12 4
-15 3 -10 -5 4 -8 0 -12 -11 -12 -15 0 -16 -2 -3 -10 13 -8 13 -10 -2 -10 -24
0 -32 -18 -17 -38 10 -12 6 -11 -10 3 -23 20 -23 20 -20 0 3 -12 -2 -20 -11
-20 -9 0 -15 -9 -14 -22 1 -13 -3 -20 -11 -16 -7 2 -16 -1 -21 -8 -4 -8 -3
-10 4 -5 7 4 12 2 12 -3 0 -6 -7 -11 -16 -11 -8 0 -12 -5 -9 -10 3 -6 -4 -14
-17 -19 -13 -6 -17 -10 -10 -10 6 -1 12 -5 12 -10 0 -4 -11 -7 -24 -6 -19 2
-23 -1 -19 -13 4 -10 2 -13 -5 -8 -13 8 -46 -49 -37 -64 4 -6 -1 -7 -12 -3
-16 6 -16 5 -4 -10 12 -15 12 -17 -3 -11 -11 4 -16 1 -16 -11 0 -10 5 -13 12
-9 7 4 8 3 4 -5 -6 -9 -11 -9 -24 1 -14 11 -15 10 -9 -6 6 -14 4 -17 -9 -12
-15 6 -15 4 -3 -11 12 -14 12 -16 0 -8 -11 6 -13 4 -8 -9 6 -14 4 -15 -15 -5
-18 10 -20 9 -15 -5 4 -9 2 -16 -3 -16 -5 0 -12 10 -15 21 -5 15 -10 18 -15 9
-7 -11 -20 7 -25 35 -3 25 -18 44 -29 38 -6 -4 -4 2 4 12 9 11 10 16 3 11 -8
-4 -13 -2 -13 4 0 6 -5 8 -12 4 -8 -5 -9 -2 -5 9 8 20 -13 23 -32 5 -11 -11
-12 -10 -5 2 15 27 12 36 -17 56 -16 10 -28 26 -26 34 1 8 -4 15 -10 16 -7 1
-18 2 -24 3 -8 1 -8 5 1 16 10 12 8 13 -10 10 -18 -3 -20 -2 -10 10 10 12 8
16 -11 23 -47 18 -53 22 -24 17 25 -4 27 -3 12 5 -10 7 -14 16 -10 23 5 9 3 9
-8 0 -16 -13 -49 4 -49 26 0 6 -5 11 -12 11 -6 0 -8 3 -4 7 4 4 18 -6 32 -22
l26 -30 -22 33 c-12 18 -30 32 -41 32 -10 0 -19 5 -19 11 0 5 5 7 10 4 6 -3
10 -1 10 4 0 6 -5 11 -11 11 -5 0 -7 5 -3 12 4 7 3 8 -4 4 -10 -6 -16 4 -14
25 1 3 -10 5 -23 3 -21 -2 -23 0 -15 16 8 15 6 17 -13 13 -18 -4 -19 -3 -7 7
12 10 11 11 -7 7 -20 -4 -21 -3 -12 15 7 13 7 18 1 14 -6 -3 -17 3 -26 15 -8
12 -19 18 -25 14 -6 -3 -14 1 -17 9 -3 9 -11 13 -18 9 -6 -4 -5 1 3 10 9 11
10 17 2 17 -6 0 -11 6 -11 14 0 8 -7 17 -16 20 -9 4 -14 13 -10 21 3 8 0 14
-7 12 -7 -1 -11 3 -10 9 1 6 -5 11 -13 11 -11 0 -11 -4 3 -21 18 -21 18 -21
-4 -2 -13 11 -23 28 -23 39 0 16 -3 17 -15 7 -12 -10 -14 -8 -10 8 2 12 -3 23
-11 26 -9 3 -13 10 -10 14 3 5 -1 9 -9 9 -12 0 -12 -4 2 -21 18 -21 18 -21 -4
-2 -13 11 -23 27 -23 37 0 10 -5 21 -12 25 -6 4 -8 3 -5 -3 3 -5 0 -10 -7 -10
-8 0 -12 6 -9 14 3 7 1 13 -5 13 -6 0 -13 -6 -15 -12 -3 -7 -4 2 -2 20 2 18
-1 30 -6 27 -13 -8 -52 31 -44 44 4 7 1 10 -7 9 -7 -2 -12 2 -11 8 1 6 -4 11
-12 11 -7 0 -11 -7 -9 -16 6 -20 -12 17 -20 43 -5 15 -9 16 -21 6 -13 -11 -14
-10 -9 4 7 19 -11 22 -20 4 -3 -7 -3 -3 0 10 3 13 1 22 -6 22 -7 0 -9 7 -6 17
4 10 4 14 0 10 -4 -4 -17 1 -28 10 l-21 18 20 -25 20 -25 -23 20 c-14 12 -21
26 -18 38 4 15 2 16 -11 6 -12 -11 -14 -10 -11 3 4 20 -38 58 -64 58 -10 0
-18 5 -18 11 0 5 -5 7 -12 3 -8 -5 -9 -2 -5 9 3 9 1 19 -5 23 -7 4 -8 3 -4 -4
4 -7 2 -12 -3 -12 -6 0 -11 5 -11 11 0 5 -6 7 -12 3 -9 -6 -9 -3 0 9 12 14 10
17 -12 23 -14 3 -23 10 -20 15 3 5 -8 12 -25 15 -17 4 -31 11 -31 16 0 5 6 6
13 2 8 -5 8 -2 -2 9 -7 9 -22 17 -32 17 -11 0 -19 7 -19 16 0 9 -9 18 -21 21
-16 4 -17 8 -7 14 9 6 7 9 -9 9 -13 0 -23 5 -23 10 0 6 -5 10 -11 10 -5 0 -7
-4 -4 -10 4 -6 -1 -7 -11 -3 -11 4 -13 8 -6 11 7 2 12 8 12 13 0 6 -4 8 -9 5
-5 -3 -11 1 -15 9 -3 8 -12 15 -21 15 -8 0 -15 7 -15 16 0 8 -5 12 -10 9 -6
-4 -7 -11 -4 -17 4 -6 2 -8 -4 -5 -5 4 -8 17 -5 28 6 20 4 20 -18 8 -22 -11
-23 -11 -10 4 9 11 10 17 2 17 -6 0 -11 6 -11 14 0 17 -27 29 -35 16 -4 -6
-12 -10 -18 -9 -9 0 -9 2 0 6 19 7 -14 36 -33 29 -10 -4 -13 -2 -8 6 5 8 2 9
-11 4 -15 -5 -16 -4 -5 9 11 13 11 16 -1 13 -8 -2 -13 3 -11 12 2 11 -2 10
-12 -4 -14 -18 -15 -17 -21 7 -4 14 -18 33 -31 41 -30 21 -44 21 -18 0 18 -15
18 -15 -3 -4 -13 6 -20 16 -17 24 3 8 -3 16 -15 19 -18 4 -19 3 -9 -16 8 -16
3 -14 -18 8 -16 17 -28 32 -27 34 1 2 -4 9 -10 16 -9 10 -17 10 -32 2 -18 -9
-19 -8 -6 6 11 14 11 18 -3 23 -9 3 -25 4 -37 1 -15 -4 -18 -2 -10 7 14 17 1
29 -16 15 -10 -9 -13 -7 -13 9 0 12 -5 24 -12 28 -7 5 -8 3 -3 -5 6 -10 3 -11
-14 -2 -11 7 -21 16 -21 21 0 6 -6 10 -13 10 -7 0 -18 9 -25 20 -7 11 -19 20
-28 20 -8 0 -13 -4 -10 -8 2 -4 0 -14 -5 -22 -9 -13 -10 -13 -8 0 2 25 -1 44
-7 38 -3 -3 -16 5 -30 19 -20 20 -28 22 -40 12 -8 -6 -17 -9 -21 -5 -3 3 -1 6
5 6 7 0 12 5 12 11 0 5 -5 7 -10 4 -6 -3 -13 1 -16 9 -3 9 -10 16 -15 16 -4 0
-6 -7 -3 -15 4 -8 1 -15 -5 -15 -6 0 -10 3 -10 8 4 21 -2 42 -12 42 -5 0 -8
-4 -5 -8 3 -5 -1 -9 -9 -9 -8 0 -17 7 -19 14 -4 9 -1 11 7 7 8 -6 8 -3 -1 8
-14 18 -42 14 -42 -6 0 -6 -5 -4 -10 4 -5 8 -10 20 -10 25 0 6 5 3 10 -5 5 -8
10 -10 10 -4 0 18 -13 24 -27 12 -11 -9 -13 -8 -11 2 2 8 -6 16 -17 18 -11 2
-22 7 -25 11 -12 14 -43 35 -36 24 4 -8 1 -13 -9 -13 -10 0 -13 5 -9 11 5 8
-1 10 -18 7 -16 -3 -25 0 -25 8 0 7 5 10 10 7 6 -3 7 -1 3 6 -6 9 -11 9 -24
-1 -13 -11 -15 -10 -9 5 7 19 -9 24 -16 5 -3 -8 -6 -6 -6 5 -1 15 -4 16 -23 6
-21 -11 -22 -11 -9 4 12 15 10 17 -13 17 -15 0 -25 3 -22 8 2 4 -7 13 -21 19
-25 12 -25 12 -7 -9 19 -21 19 -21 -3 -7 -13 8 -23 17 -23 20 0 4 -7 10 -16
13 -10 4 -13 2 -8 -7 5 -8 2 -7 -9 2 -9 7 -17 10 -17 5 0 -5 -4 -4 -8 1 -13
18 -66 61 -58 48 4 -8 1 -13 -8 -13 -9 0 -16 6 -16 13 0 8 -4 7 -10 -3 -5 -8
-10 -10 -10 -4 0 7 -7 15 -16 18 -12 5 -14 3 -8 -7 5 -7 2 -5 -7 4 -11 12 -20
14 -26 8 -6 -6 -14 -4 -23 6 -11 13 -10 15 6 9 18 -5 18 -5 1 6 -21 14 -53 22
-88 24 -18 1 -25 5 -21 15 4 10 1 12 -9 5 -20 -12 -40 -14 -33 -3 3 5 10 6 16
3 6 -4 8 -2 5 3 -5 7 -20 8 -42 3 -29 -6 -34 -6 -25 5 8 10 4 14 -14 17 -17 3
-23 1 -20 -6 3 -6 -1 -3 -9 7 -8 10 -28 20 -43 23 -20 3 -25 2 -15 -5 10 -7 7
-9 -11 -8 -17 1 -24 7 -20 15 3 10 -4 13 -24 12 -16 -1 -32 -1 -36 0 -5 1 -18
3 -30 4 -16 1 -22 7 -20 19 3 15 0 17 -17 8 -26 -14 -34 -14 -25 1 5 8 2 9 -9
5 -12 -4 -17 -1 -17 10 0 14 -2 14 -16 -3 -8 -10 -13 -14 -10 -7 4 6 2 14 -3
17 -5 4 -12 -2 -14 -11 -4 -17 -5 -17 -6 0 -1 12 -5 15 -13 10 -22 -13 -38
-12 -38 3 0 9 -4 12 -10 9 -5 -3 -10 0 -11 7 0 7 -4 4 -9 -7 -7 -17 -9 -17 -9
-2 -1 9 -6 17 -12 17 -5 0 -7 -6 -3 -12 6 -10 4 -10 -7 0 -15 14 -33 17 -25 4
3 -5 -1 -9 -9 -9 -8 0 -15 5 -15 11 0 6 -4 6 -11 -1 -13 -13 -59 3 -59 21 0 6
-5 4 -10 -4 -6 -10 -10 -11 -10 -2 0 6 -4 12 -10 12 -5 0 -7 -8 -4 -17 5 -17
5 -17 -6 0 -11 16 -36 25 -26 9 3 -5 -1 -9 -9 -9 -8 0 -12 4 -9 9 3 4 0 8 -5
8 -6 0 -11 -4 -11 -9 0 -10 -26 -9 -36 2 -15 15 -26 6 -13 -10 7 -10 2 -8 -12
5 -28 24 -44 29 -33 10 4 -7 -4 -2 -18 10 -25 23 -27 23 -37 5 -7 -12 -10 -13
-11 -4 0 11 -3 11 -17 0 -11 -10 -14 -10 -9 -1 4 7 1 12 -9 12 -9 0 -13 -4
-10 -10 3 -5 1 -10 -4 -10 -6 0 -11 5 -11 11 0 8 -6 7 -17 -2 -9 -8 -14 -9
-10 -3 5 8 -7 12 -36 11 -24 0 -48 3 -55 6 -6 4 -14 2 -18 -4 -4 -8 -3 -9 4
-5 7 4 12 3 12 -3 0 -5 -9 -9 -20 -8 -14 1 -19 6 -15 17 3 9 -1 8 -10 -4 -10
-14 -15 -15 -15 -6 0 11 -3 11 -12 2 -17 -17 -33 -15 -18 3 16 20 6 19 -14 -1
-10 -10 -16 -11 -16 -3 0 8 -5 8 -17 -2 -9 -8 -14 -9 -10 -2 5 8 -4 11 -30 9
-21 -2 -46 1 -55 6 -10 5 -19 4 -24 -4 -4 -7 -3 -8 4 -4 8 5 10 1 5 -10 -4
-11 -8 -13 -11 -6 -2 7 -9 9 -15 5 -7 -4 -8 0 -4 13 7 18 7 18 -8 0 -10 -14
-15 -15 -15 -6 0 11 -3 11 -12 2 -17 -17 -33 -15 -18 3 16 20 6 19 -14 -1z
m559 -4 c3 -5 1 -10 -4 -10 -6 0 -11 5 -11 10 0 6 2 10 4 10 3 0 8 -4 11 -10z
m7633 -25 c-3 -3 -9 2 -12 12 -6 14 -5 15 5 6 7 -7 10 -15 7 -18z m767 5 c3
-5 1 -10 -4 -10 -6 0 -11 5 -11 10 0 6 2 10 4 10 3 0 8 -4 11 -10z m80 -10 c3
-5 1 -10 -4 -10 -6 0 -11 5 -11 10 0 6 2 10 4 10 3 0 8 -4 11 -10z m-9639 -42
c4 -7 3 -8 -4 -4 -7 4 -12 2 -12 -5 0 -7 -3 -10 -6 -6 -6 5 3 27 11 27 2 0 7
-5 11 -12z m8325 -25 c13 -16 12 -17 -3 -4 -17 13 -22 21 -14 21 2 0 10 -8 17
-17z m1799 7 c0 -5 -5 -10 -11 -10 -5 0 -7 5 -4 10 3 6 8 10 11 10 2 0 4 -4 4
-10z m160 -40 c0 -5 -2 -10 -4 -10 -3 0 -8 5 -11 10 -3 6 -1 10 4 10 6 0 11
-4 11 -10z m-10613 -22 c-3 -8 -6 -5 -6 6 -1 11 2 17 5 13 3 -3 4 -12 1 -19z
m2241 -3 c-3 -3 -9 2 -12 12 -6 14 -5 15 5 6 7 -7 10 -15 7 -18z m8482 -1 c0
-8 -19 -13 -24 -6 -3 5 1 9 9 9 8 0 15 -2 15 -3z m131 -41 c13 -16 12 -17 -3
-4 -17 13 -22 21 -14 21 2 0 10 -8 17 -17z m-2622 -6 c-37 -27 -56 -34 -56
-22 0 8 3 12 7 10 3 -2 12 0 20 6 13 8 40 14 29 6z m-5595 -75 c3 -5 -1 -9 -9
-9 -8 0 -12 4 -9 9 3 4 7 8 9 8 2 0 6 -4 9 -8z m5331 -31 c-9 -8 -36 -10 -30
-2 2 4 11 8 20 8 8 0 13 -3 10 -6z m-95 -35 c0 -2 -7 -7 -16 -10 -8 -3 -12 -2
-9 4 6 10 25 14 25 6z m-8583 -61 c0 -8 -4 -12 -9 -9 -4 3 -8 9 -8 15 0 5 4 9
8 9 5 0 9 -7 9 -15z m3687 -33 c3 -5 -1 -9 -9 -9 -8 0 -12 4 -9 9 3 4 7 8 9 8
2 0 6 -4 9 -8z m-3938 -74 c4 -7 3 -8 -4 -4 -7 4 -12 2 -12 -5 0 -7 -3 -10 -6
-6 -6 5 3 27 11 27 2 0 7 -5 11 -12z m12674 -38 c0 -5 -5 -10 -11 -10 -5 0 -7
5 -4 10 3 6 8 10 11 10 2 0 4 -4 4 -10z m-8464 -40 c5 1 10 -4 12 -12 3 -11 2
-11 -6 0 -5 8 -13 13 -18 12 -5 -1 -10 4 -12 12 -3 11 -2 11 6 0 5 -8 13 -13
18 -12z m-4357 -11 c-15 -9 -32 -2 -24 11 3 5 13 6 21 3 12 -4 13 -8 3 -14z
m12921 -9 c0 -5 -5 -10 -11 -10 -5 0 -7 5 -4 10 3 6 8 10 11 10 2 0 4 -4 4
-10z m-8475 -19 c3 -5 2 -12 -3 -15 -5 -3 -9 1 -9 9 0 17 3 19 12 6z m3882
-76 c0 -8 -3 -13 -5 -10 -3 3 -12 -1 -21 -7 -10 -8 -9 -4 3 10 23 26 23 26 23
7z m4909 -87 c4 -7 3 -8 -4 -4 -7 4 -12 2 -12 -5 0 -7 -3 -10 -6 -6 -6 5 3 27
11 27 2 0 7 -5 11 -12z m244 -163 c11 -13 10 -14 -4 -9 -9 3 -16 10 -16 15 0
13 6 11 20 -6z m-14084 -17 c4 -7 4 -10 -1 -6 -4 4 -15 2 -24 -5 -14 -11 -14
-10 -2 6 16 20 18 21 27 5z m5552 -13 c-3 -3 -9 2 -12 12 -6 14 -5 15 5 6 7
-7 10 -15 7 -18z m8612 -19 c0 -3 -4 -8 -10 -11 -5 -3 -10 -1 -10 4 0 6 5 11
10 11 6 0 10 -2 10 -4z m-5730 -66 c0 -5 -5 -10 -11 -10 -5 0 -7 5 -4 10 3 6
8 10 11 10 2 0 4 -4 4 -10z m-2633 -116 c-3 -3 -12 -4 -19 -1 -8 3 -5 6 6 6
11 1 17 -2 13 -5z m2476 -9 c-3 -9 -8 -14 -10 -11 -3 3 -2 9 2 15 9 16 15 13
8 -4z m-2273 -158 c13 -9 19 -17 13 -17 -6 0 -16 7 -23 15 -7 8 -16 13 -20 10
-5 -3 -11 -1 -14 4 -9 14 16 8 44 -12z m-6532 -57 c-7 -10 -14 -17 -17 -15 -4
4 18 35 25 35 2 0 -1 -9 -8 -20z m15342 -175 c0 -7 -40 32 -65 65 -11 14 0 6
23 -17 23 -23 42 -45 42 -48z m-6934 13 c4 -7 3 -8 -4 -4 -7 4 -12 2 -12 -5 0
-7 -3 -10 -6 -6 -6 5 3 27 11 27 2 0 7 -5 11 -12z m-8671 -78 c-3 -5 -12 -10
-18 -10 -7 0 -6 4 3 10 19 12 23 12 15 0z m8591 -2 c4 -7 3 -8 -4 -4 -7 4 -12
2 -12 -5 0 -7 -3 -10 -6 -6 -6 5 3 27 11 27 2 0 7 -5 11 -12z m7114 -22 c0 -3
-4 -8 -10 -11 -5 -3 -10 -1 -10 4 0 6 5 11 10 11 6 0 10 -2 10 -4z m140 -152
c0 -8 -19 -13 -24 -6 -3 5 1 9 9 9 8 0 15 -2 15 -3z m-16017 -17 c3 -8 -1 -14
-8 -14 -7 0 -11 6 -8 14 3 7 6 13 8 13 2 0 5 -6 8 -13z m8523 -49 c4 -7 3 -8
-4 -4 -7 4 -12 2 -12 -5 0 -7 -3 -10 -6 -6 -6 5 3 27 11 27 2 0 7 -5 11 -12z
m7577 -22 c16 -12 16 -14 2 -20 -9 -3 -13 -2 -10 3 3 6 -3 14 -12 20 -10 6
-13 10 -8 10 6 0 18 -6 28 -13z m-8582 -13 c12 -16 12 -17 -2 -6 -9 7 -20 9
-24 5 -5 -4 -5 -1 -1 6 9 16 11 15 27 -5z m614 -409 c-8 -9 -12 -20 -9 -26 4
-7 2 -8 -4 -4 -8 5 -8 13 0 31 6 13 15 22 20 19 4 -3 1 -12 -7 -20z m8310 -44
c3 -5 1 -10 -4 -10 -6 0 -11 5 -11 10 0 6 2 10 4 10 3 0 8 -4 11 -10z m-17060
-260 c-3 -5 -11 -10 -16 -10 -6 0 -7 5 -4 10 3 6 11 10 16 10 6 0 7 -4 4 -10z
m-148 -235 c-15 -16 -19 -13 -11 9 3 9 10 13 15 10 5 -3 3 -11 -4 -19z m-309
-630 c-3 -3 -9 2 -12 12 -6 14 -5 15 5 6 7 -7 10 -15 7 -18z m18218 -100 c-1
-8 -5 -17 -8 -21 -5 -4 -4 16 1 34 3 9 9 -1 7 -13z m79 -163 c-3 -3 -11 0 -18
7 -9 10 -8 11 6 5 10 -3 15 -9 12 -12z m-18435 -70 c0 -5 -7 -9 -15 -9 -8 0
-12 4 -9 9 3 4 9 8 15 8 5 0 9 -4 9 -8z m-99 -281 c-7 -5 -11 -14 -7 -20 5 -7
1 -9 -9 -5 -12 5 -13 9 -4 20 6 8 17 14 23 14 6 0 5 -4 -3 -9z m18689 -105 c0
-2 -8 -10 -17 -17 -16 -13 -17 -12 -4 4 13 16 21 21 21 13z m30 -90 c0 -3 -4
-8 -10 -11 -5 -3 -10 -1 -10 4 0 6 5 11 10 11 6 0 10 -2 10 -4z m-18783 -38
c2 -17 0 -19 -7 -8 -5 8 -6 18 -4 22 8 12 10 10 11 -14z m18798 -88 c3 -5 1
-10 -4 -10 -6 0 -11 5 -11 10 0 6 2 10 4 10 3 0 8 -4 11 -10z m18 -65 c4 -8 3
-16 -1 -19 -4 -3 -9 4 -9 15 -2 23 3 25 10 4z m-18903 -351 c0 -8 -19 -13 -24
-6 -3 5 1 9 9 9 8 0 15 -2 15 -3z m18985 -533 c3 -5 2 -12 -3 -15 -5 -3 -9 1
-9 9 0 17 3 19 12 6z m9 -509 c3 -5 -1 -9 -9 -9 -8 0 -12 4 -9 9 3 4 7 8 9 8
2 0 6 -4 9 -8z m-19019 -361 c3 -5 2 -12 -3 -15 -5 -3 -9 1 -9 9 0 17 3 19 12
6z m18979 -19 c3 -5 -1 -9 -9 -9 -8 0 -12 4 -9 9 3 4 7 8 9 8 2 0 6 -4 9 -8z
m-18966 -147 c-3 -3 -9 2 -12 12 -6 14 -5 15 5 6 7 -7 10 -15 7 -18z m15 -70
c-3 -9 -8 -14 -10 -11 -3 3 -2 9 2 15 9 16 15 13 8 -4z m18918 -249 c-6 -7 -9
-15 -6 -18 3 -2 -2 -5 -10 -5 -13 0 -13 2 0 17 8 9 12 20 8 25 -5 4 -2 5 5 1
9 -6 10 -11 3 -20z m-18871 4 c0 -5 -2 -10 -4 -10 -3 0 -8 5 -11 10 -3 6 -1
10 4 10 6 0 11 -4 11 -10z m97 -446 c-3 -3 -12 -4 -19 -1 -8 3 -5 6 6 6 11 1
17 -2 13 -5z m14 -71 c13 -16 12 -17 -3 -4 -17 13 -22 21 -14 21 2 0 10 -8 17
-17z m26 -88 c0 -8 -4 -12 -9 -9 -5 3 -6 10 -3 15 9 13 12 11 12 -6z m18397
-633 c3 -5 -1 -9 -9 -9 -8 0 -12 4 -9 9 3 4 7 8 9 8 2 0 6 -4 9 -8z m-18109
-180 c-3 -3 -11 0 -18 7 -9 10 -8 11 6 5 10 -3 15 -9 12 -12z m60 -142 c3 -5
1 -10 -4 -10 -6 0 -11 5 -11 10 0 6 2 10 4 10 3 0 8 -4 11 -10z m32 -87 c0 -9
-4 -10 -14 -2 -7 6 -13 12 -13 14 0 1 6 2 13 2 8 0 14 -6 14 -14z m17848 -43
c-3 -5 -12 -10 -18 -10 -7 0 -6 4 3 10 19 12 23 12 15 0z m-17830 -9 c3 -5 2
-12 -3 -15 -5 -3 -9 1 -9 9 0 17 3 19 12 6z m17815 -27 c0 -8 -19 -13 -24 -6
-3 5 1 9 9 9 8 0 15 -2 15 -3z m-10 -36 c0 -4 -4 -8 -9 -8 -6 0 -12 4 -15 8
-3 5 1 9 9 9 8 0 15 -4 15 -9z m-17619 -331 c-10 -9 -11 -8 -5 6 3 10 9 15 12
12 3 -3 0 -11 -7 -18z m124 -227 c3 -5 2 -10 -4 -10 -5 0 -13 5 -16 10 -3 6
-2 10 4 10 5 0 13 -4 16 -10z m20 -40 c-3 -5 -1 -10 6 -10 7 0 10 -3 6 -6 -9
-9 -28 6 -22 17 4 5 8 9 11 9 3 0 2 -4 -1 -10z m129 -226 c7 -19 2 -18 -19 6
-16 17 -16 20 -3 15 9 -4 19 -13 22 -21z m23 -49 c0 -8 -4 -12 -9 -9 -5 3 -6
10 -3 15 9 13 12 11 12 -6z m16791 -135 c-12 -17 -24 -28 -26 -25 -3 3 4 16
16 28 12 13 19 27 15 32 -5 4 -2 5 4 1 10 -5 7 -15 -9 -36z m-195 -305 c-3 -9
-8 -14 -10 -11 -3 3 -2 9 2 15 9 16 15 13 8 -4z m-16036 -440 c0 -8 -4 -12 -9
-9 -5 3 -6 10 -3 15 9 13 12 11 12 -6z m177 -251 c6 -15 4 -15 -11 -3 -10 7
-20 15 -22 16 -2 2 3 3 11 3 9 0 19 -7 22 -16z m43 -51 c-4 -3 0 -18 9 -32
l15 -26 -20 24 c-19 21 -20 41 -4 41 4 0 3 -3 0 -7z m107 -149 c5 -14 4 -15
-9 -4 -17 14 -19 20 -6 20 5 0 12 -7 15 -16z m15106 1 c-7 -8 -17 -15 -22 -15
-11 0 14 29 26 30 5 0 3 -7 -4 -15z m-14985 -153 c-3 -3 -11 0 -18 7 -9 10 -8
11 6 5 10 -3 15 -9 12 -12z m14855 -26 c0 -3 -4 -8 -10 -11 -5 -3 -10 -1 -10
4 0 6 5 11 10 11 6 0 10 -2 10 -4z m-14800 -42 c0 -8 -19 -13 -24 -6 -3 5 1 9
9 9 8 0 15 -2 15 -3z m55 -72 c-3 -3 -11 0 -18 7 -9 10 -8 11 6 5 10 -3 15 -9
12 -12z m14605 -63 c0 -5 -4 -9 -8 -9 -5 0 -9 7 -9 15 0 8 4 12 9 9 4 -3 8 -9
8 -15z m-286 -348 c3 -4 -4 -17 -15 -27 -18 -16 -19 -16 -13 -1 3 9 10 17 16
17 5 0 6 5 3 10 -3 6 -4 10 -1 10 3 0 7 -4 10 -9z m-13373 -706 c5 3 6 -1 3
-10 -6 -14 -8 -14 -20 2 -7 10 -13 23 -13 28 0 6 4 2 10 -8 6 -9 14 -15 20
-12z m12749 -5 c-12 -23 -16 -24 -26 -8 -4 6 -3 8 3 5 6 -4 13 0 17 8 3 8 8
15 11 15 3 0 1 -9 -5 -20z m-145 -140 c3 -5 1 -10 -4 -10 -6 0 -11 5 -11 10 0
6 2 10 4 10 3 0 8 -4 11 -10z m-12378 -105 c0 -8 -4 -12 -9 -9 -5 3 -6 10 -3
15 9 13 12 11 12 -6z m11975 -337 c-14 -14 -44 -20 -36 -7 3 5 9 7 14 4 5 -3
11 -1 15 5 3 5 9 10 13 10 3 0 1 -5 -6 -12z m-11553 -84 c4 3 8 -1 8 -9 0 -11
-4 -12 -14 -4 -7 6 -13 17 -12 23 0 7 2 6 6 -2 2 -6 8 -10 12 -8z m11177 -279
c-1 -8 -8 -21 -16 -28 -10 -10 -11 -9 -4 3 5 8 9 18 10 23 3 14 4 17 8 17 2 0
3 -7 2 -15z m-10856 -50 c14 -19 14 -19 -2 -6 -10 7 -18 18 -18 24 0 6 1 8 3
6 1 -2 9 -13 17 -24z m10752 -67 c-14 -14 -44 -20 -36 -7 3 5 9 7 14 4 5 -3
11 -1 15 5 3 5 9 10 13 10 3 0 1 -5 -6 -12z m-10497 -168 c3 -6 -1 -7 -9 -4
-18 7 -21 14 -7 14 6 0 13 -4 16 -10z m136 -125 c5 3 6 -1 3 -10 -6 -14 -8
-14 -20 2 -7 10 -13 23 -13 28 0 6 4 2 10 -8 6 -9 14 -15 20 -12z m156 -152
c0 -9 -4 -10 -14 -2 -7 6 -13 12 -13 14 0 1 6 2 13 2 8 0 14 -6 14 -14z m238
-211 c-3 -3 -11 0 -18 7 -9 10 -8 11 6 5 10 -3 15 -9 12 -12z m9155 -102 c-12
-23 -16 -24 -26 -8 -4 6 -3 8 3 5 6 -4 13 0 17 8 3 8 8 15 11 15 3 0 1 -9 -5
-20z m-253 -205 c0 -8 -4 -12 -9 -9 -5 3 -6 10 -3 15 9 13 12 11 12 -6z
m-8522 -25 c-3 -5 -12 -10 -18 -10 -7 0 -6 4 3 10 19 12 23 12 15 0z m8495 -9
c-5 -11 -15 -23 -22 -27 -7 -5 -8 -2 -3 7 21 37 44 55 25 20z m-100 -84 c0 -2
-8 -11 -18 -20 -15 -14 -19 -15 -19 -2 0 8 4 12 8 9 4 -2 10 0 14 6 6 10 15
14 15 7z m-8269 -24 c13 -16 12 -17 -3 -4 -10 7 -18 15 -18 17 0 8 8 3 21 -13z
m79 -47 c0 -3 -4 -8 -10 -11 -5 -3 -10 -1 -10 4 0 6 5 11 10 11 6 0 10 -2 10
-4z m7868 -221 c-3 -3 -9 2 -12 12 -6 14 -5 15 5 6 7 -7 10 -15 7 -18z m-7444
-151 c3 -8 2 -12 -4 -9 -6 3 -10 10 -10 16 0 14 7 11 14 -7z m7216 -14 c0 -5
-5 -10 -11 -10 -5 0 -7 5 -4 10 3 6 8 10 11 10 2 0 4 -4 4 -10z m-200 -194 c0
-2 -7 -7 -16 -10 -8 -3 -12 -2 -9 4 6 10 25 14 25 6z m-186 -136 c-6 -6 -10
-3 -10 10 0 13 4 16 10 10 7 -7 7 -13 0 -20z m-6141 -203 c4 3 7 1 7 -5 0 -7
-4 -12 -8 -12 -12 0 -32 22 -32 35 0 5 7 2 14 -7 7 -10 16 -15 19 -11z m5717
-137 c-8 -5 -19 -10 -25 -10 -5 1 -2 5 8 11 9 6 14 16 11 22 -5 8 -2 7 7 -1
12 -11 12 -14 -1 -22z m-5475 -61 c13 -20 0 -15 -25 9 -23 22 -23 24 -3 13 12
-6 25 -16 28 -22z m5169 -168 c3 -5 -1 -14 -8 -20 -10 -9 -16 -9 -21 -1 -4 6
-1 9 7 8 7 -2 12 3 11 10 -3 14 3 16 11 3z m-233 -174 c-10 -9 -11 -8 -5 6 3
10 9 15 12 12 3 -3 0 -11 -7 -18z m-4404 -52 c0 -8 -4 -12 -9 -9 -5 3 -6 10
-3 15 9 13 12 11 12 -6z m203 -131 c0 -8 -19 -13 -24 -6 -3 5 1 9 9 9 8 0 15
-2 15 -3z m3701 -171 c13 -16 12 -17 -3 -4 -10 7 -18 15 -18 17 0 8 8 3 21
-13z m-3406 -63 c10 -11 16 -20 13 -20 -3 0 -13 9 -23 20 -10 11 -16 20 -13
20 3 0 13 -9 23 -20z m95 -50 c0 -5 -2 -10 -4 -10 -3 0 -8 5 -11 10 -3 6 -1
10 4 10 6 0 11 -4 11 -10z m90 -70 c8 -5 11 -10 5 -10 -5 0 -17 5 -25 10 -8 5
-10 10 -5 10 6 0 17 -5 25 -10z m74 -52 c-3 -4 -9 -8 -15 -8 -5 0 -9 4 -9 8 0
5 7 9 15 9 8 0 12 -4 9 -9z m2796 -32 c0 -2 -7 -7 -16 -10 -8 -3 -12 -2 -9 4
6 10 25 14 25 6z m-2682 -65 c3 -8 -3 -6 -15 5 -11 11 -28 25 -39 32 -10 7 -4
5 15 -5 19 -10 36 -24 39 -32z m2642 39 c0 -5 -5 -10 -11 -10 -5 0 -7 5 -4 10
3 6 8 10 11 10 2 0 4 -4 4 -10z m-2113 -385 c0 -8 -4 -12 -9 -9 -5 3 -6 10 -3
15 9 13 12 11 12 -6z m1451 -60 c-3 -3 -9 2 -12 12 -6 14 -5 15 5 6 7 -7 10
-15 7 -18z m-1303 -43 c-3 -3 -11 0 -18 7 -9 10 -8 11 6 5 10 -3 15 -9 12 -12z
m885 -232 c0 -5 -5 -10 -11 -10 -5 0 -7 5 -4 10 3 6 8 10 11 10 2 0 4 -4 4
-10z m-456 -46 c3 -8 2 -12 -4 -9 -6 3 -10 10 -10 16 0 14 7 11 14 -7z m76
-19 c0 -7 -30 -13 -34 -7 -3 4 4 9 15 9 10 1 19 0 19 -2z m215 -43 c-3 -3 -11
0 -18 7 -9 10 -8 11 6 5 10 -3 15 -9 12 -12z m-141 -10 c3 -5 -1 -9 -9 -9 -8
0 -12 4 -9 9 3 4 7 8 9 8 2 0 6 -4 9 -8z"/>
<path d="M5476 18089 c5 -9 31 -6 40 4 4 4 -4 6 -19 5 -14 -1 -24 -5 -21 -9z"/>
<path d="M13687 18076 c-4 -10 -1 -13 8 -9 8 3 12 9 9 14 -7 12 -11 11 -17 -5z"/>
<path d="M6825 18009 c-3 -4 2 -6 10 -5 21 3 28 13 10 13 -9 0 -18 -4 -20 -8z"/>
<path d="M15910 17812 c0 -4 9 -13 20 -20 11 -7 20 -9 20 -4 0 4 -9 13 -20 20
-11 7 -20 9 -20 4z"/>
<path d="M3316 17338 c3 -5 10 -6 15 -3 13 9 11 12 -6 12 -8 0 -12 -4 -9 -9z"/>
<path d="M16968 17263 c7 -3 16 -2 19 1 4 3 -2 6 -13 5 -11 0 -14 -3 -6 -6z"/>
<path d="M17445 16900 c3 -5 8 -10 11 -10 2 0 4 5 4 10 0 6 -5 10 -11 10 -5 0
-7 -4 -4 -10z"/>
<path d="M17586 16768 c3 -4 9 -8 15 -8 5 0 9 4 9 8 0 5 -7 9 -15 9 -8 0 -12
-4 -9 -9z"/>
<path d="M18315 16000 c3 -5 8 -10 11 -10 2 0 4 5 4 10 0 6 -5 10 -11 10 -5 0
-7 -4 -4 -10z"/>
<path d="M18395 15900 c3 -5 8 -10 11 -10 2 0 4 5 4 10 0 6 -5 10 -11 10 -5 0
-7 -4 -4 -10z"/>
<path d="M1123 14915 c0 -8 4 -12 9 -9 5 3 6 10 3 15 -9 13 -12 11 -12 -6z"/>
<path d="M19565 13060 c-3 -5 -1 -10 4 -10 6 0 11 5 11 10 0 6 -2 10 -4 10 -3
0 -8 -4 -11 -10z"/>
<path d="M790 10716 c0 -2 8 -10 18 -17 15 -13 16 -12 3 4 -13 16 -21 21 -21
13z"/>
<path d="M920 10320 c0 -5 5 -10 11 -10 5 0 7 5 4 10 -3 6 -8 10 -11 10 -2 0
-4 -4 -4 -10z"/>
<path d="M18040 7890 c-8 -5 -12 -12 -9 -15 4 -3 12 1 19 10 14 17 11 19 -10
5z"/>
<path d="M2596 7327 c3 -10 9 -15 12 -12 3 3 0 11 -7 18 -10 9 -11 8 -5 -6z"/>
<path d="M3590 6140 c0 -5 5 -10 11 -10 5 0 7 5 4 10 -3 6 -8 10 -11 10 -2 0
-4 -4 -4 -10z"/>
<path d="M4145 5540 c-3 -5 1 -10 10 -10 9 0 13 5 10 10 -3 6 -8 10 -10 10 -2
0 -7 -4 -10 -10z"/>
<path d="M4310 5371 c0 -5 7 -12 16 -15 14 -5 15 -4 4 9 -14 17 -20 19 -20 6z"/>
<path d="M15905 5349 c-4 -6 -5 -12 -2 -15 2 -3 7 2 10 11 7 17 1 20 -8 4z"/>
<path d="M15828 5283 c-28 -33 -31 -48 -3 -20 15 16 25 30 23 33 -3 2 -12 -4
-20 -13z"/>
<path d="M4443 5245 c0 -8 4 -12 9 -9 5 3 6 10 3 15 -9 13 -12 11 -12 -6z"/>
<path d="M15665 5120 c-3 -5 -1 -10 4 -10 6 0 11 5 11 10 0 6 -2 10 -4 10 -3
0 -8 -4 -11 -10z"/>
<path d="M4630 5051 c0 -5 7 -12 16 -15 14 -5 15 -4 4 9 -14 17 -20 19 -20 6z"/>
<path d="M15605 5050 c-3 -6 1 -7 9 -4 18 7 21 14 7 14 -6 0 -13 -4 -16 -10z"/>
<path d="M15425 4869 c-4 -6 -5 -12 -2 -15 2 -3 7 2 10 11 7 17 1 20 -8 4z"/>
<path d="M15348 4803 c-28 -33 -31 -48 -3 -20 15 16 25 30 23 33 -3 2 -12 -4
-20 -13z"/>
<path d="M14950 4420 c0 -5 5 -10 10 -10 6 0 10 5 10 10 0 6 -4 10 -10 10 -5
0 -10 -4 -10 -10z"/>
<path d="M6165 3660 c-3 -5 -1 -10 4 -10 6 0 11 5 11 10 0 6 -2 10 -4 10 -3 0
-8 -4 -11 -10z"/>
<path d="M6295 3549 c-4 -6 -5 -12 -2 -15 2 -3 7 2 10 11 7 17 1 20 -8 4z"/>
<path d="M6865 3088 c5 -13 45 -42 50 -36 1 2 -11 13 -26 26 -16 13 -27 17
-24 10z"/>
<path d="M13075 2840 c-3 -5 -1 -10 4 -10 6 0 11 5 11 10 0 6 -2 10 -4 10 -3
0 -8 -4 -11 -10z"/>
<path d="M12345 2269 c-4 -6 -5 -12 -2 -15 2 -3 7 2 10 11 7 17 1 20 -8 4z"/>
<path d="M7990 2237 c0 -4 9 -16 20 -27 11 -11 20 -16 20 -12 0 5 -9 17 -20
27 -11 10 -20 15 -20 12z"/>
<path d="M11595 1740 c-3 -5 -1 -10 4 -10 6 0 11 5 11 10 0 6 -2 10 -4 10 -3
0 -8 -4 -11 -10z"/>
<path d="M11006 1332 c-3 -5 1 -9 9 -9 8 0 12 4 9 9 -3 4 -7 8 -9 8 -2 0 -6
-4 -9 -8z"/>
</g>
</svg>
